<svg xmlns="http://www.w3.org/2000/svg" xmlns:xlink="http://www.w3.org/1999/xlink" width="38.897" height="38.897" viewBox="0 0 38.897 38.897">
  <defs>
    <clipPath id="clip-path">
      <rect id="Rectangle_34" data-name="Rectangle 34" width="38.897" height="38.897" fill="none"/>
    </clipPath>
  </defs>
  <g id="P" opacity="0.5">
    <g id="Group_7002" data-name="Group 7002" transform="translate(0 0)" clip-path="url(#clip-path)">
      <path id="Path_2640" data-name="Path 2640" d="M19.486,38.755h0a19.27,19.27,0,1,1,19.27-19.27A19.27,19.27,0,0,1,19.486,38.755Z" transform="translate(-0.037 -0.037)" fill="none" stroke="#141613" stroke-width="0.432"/>
      <path id="Path_2641" data-name="Path 2641" d="M16.365,22.95a.4.4,0,0,0,.584-.291c.053-.2.181-.721.237-.936a.563.563,0,0,0-.168-.649,3.362,3.362,0,0,1-.769-2.286A5.521,5.521,0,0,1,21.989,13.2c3.13,0,4.849,1.913,4.849,4.467,0,3.361-1.487,6.2-3.7,6.2a1.8,1.8,0,0,1-1.84-2.245,24.962,24.962,0,0,0,1.029-4.137,1.561,1.561,0,0,0-1.572-1.75c-1.247,0-2.249,1.29-2.249,3.018a4.475,4.475,0,0,0,.372,1.844s-1.276,5.406-1.5,6.352a13.069,13.069,0,0,0-.035,4.429.155.155,0,0,0,.277.067,12.438,12.438,0,0,0,2.1-3.815c.143-.518.82-3.2.82-3.2A3.34,3.34,0,0,0,23.4,25.881c3.747,0,6.289-3.416,6.289-7.988,0-3.457-2.927-6.677-7.379-6.677-5.537,0-8.33,3.97-8.33,7.281,0,2,.759,3.789,2.387,4.453" transform="translate(-2.384 -1.913)" fill="#141613"/>
    </g>
  </g>
</svg>
