<svg width="167" height="186" viewBox="0 0 167 186" fill="none" xmlns="http://www.w3.org/2000/svg">
<path d="M85 48.0001C87.6875 49.4376 87.6875 49.4376 90 51.0001C93.6953 51.7193 93.6953 51.7193 97 52.0001C97.495 53.4851 97.495 53.4851 98 55.0001C98.7425 55.0826 99.485 55.1651 100.25 55.2501C103.643 56.1755 104.885 57.205 107 60.0001C108.368 65.2633 108.368 65.2633 107 68.0001C107.71 67.9885 108.421 67.9769 109.152 67.965C110.071 67.9559 110.991 67.9469 111.938 67.9376C113.312 67.9202 113.312 67.9202 114.715 67.9025C117 68.0001 117 68.0001 118 69.0001C118.103 70.4014 118.139 71.8077 118.145 73.2128C118.152 74.1072 118.158 75.0016 118.165 75.9231C118.166 76.896 118.167 77.8688 118.168 78.8712C118.173 80.3602 118.173 80.3602 118.178 81.8793C118.183 83.9834 118.186 86.0876 118.185 88.1918C118.188 91.4203 118.206 94.6486 118.225 97.8771C118.228 99.9168 118.23 101.956 118.231 103.996C118.238 104.967 118.245 105.938 118.252 106.938C118.249 107.836 118.246 108.733 118.243 109.658C118.244 110.45 118.246 111.242 118.247 112.058C118 114 118 114 116 116C113.57 116.227 113.57 116.227 110.555 116.195C108.94 116.186 108.94 116.186 107.293 116.176C106.165 116.159 105.037 116.142 103.875 116.125C102.172 116.112 102.172 116.112 100.434 116.098C97.6222 116.074 94.8112 116.041 92 116C92.33 117.32 92.66 118.64 93 120C94.1138 119.959 95.2275 119.918 96.375 119.875C100 120 100 120 102 122C102 123.32 102 124.64 102 126C90.12 126 78.24 126 66 126C66.33 124.35 66.66 122.7 67 121C69.7088 119.646 72.0094 119.935 75 120C75.33 118.68 75.66 117.36 76 116C75.2835 116.011 74.5669 116.021 73.8287 116.032C70.5942 116.073 67.3597 116.099 64.125 116.125C62.9971 116.142 61.8692 116.159 60.7071 116.176C59.0925 116.186 59.0925 116.186 57.4454 116.195C56.4504 116.206 55.4554 116.216 54.4302 116.227C52 116 52 116 50 114C49.7528 112.058 49.7528 112.058 49.7571 109.658C49.754 108.761 49.751 107.863 49.7478 106.938C49.755 105.967 49.7622 104.996 49.7696 103.996C49.77 103.003 49.7705 102.009 49.771 100.985C49.774 98.8828 49.7819 96.7805 49.7942 94.6781C49.8125 91.4475 49.8147 88.2171 49.8145 84.9864C49.8194 82.948 49.8252 80.9096 49.8321 78.8712C49.8332 77.8983 49.8343 76.9254 49.8354 75.9231C49.8418 75.0287 49.8482 74.1343 49.8548 73.2128C49.8586 72.4216 49.8624 71.6304 49.8663 70.8153C50 69.0001 50 69.0001 51 68.0001C52.5147 67.7682 54.0376 67.588 55.5625 67.4376C56.802 67.3119 56.802 67.3119 58.0665 67.1837C58.7045 67.1231 59.3426 67.0625 60 67.0001C60.2888 66.0514 60.5775 65.1026 60.875 64.1251C62 61.0001 62 61.0001 64 59.0001C65.32 59.0001 66.64 59.0001 68 59.0001C68.0413 58.1132 68.0825 57.2264 68.125 56.3126C69.049 52.8148 70.1457 51.0924 73.0547 48.9142C76.9033 47.1058 80.8738 47.3402 85 48.0001ZM71 56.0001C70.835 56.887 70.67 57.7739 70.5 58.6876C70.335 59.4507 70.17 60.2139 70 61.0001C67.5 62.2501 67.5 62.2501 65 63.0001C63.73 64.0532 63.73 64.0532 63.8125 66.4376C63.7316 69.1675 63.7316 69.1675 66 71.0001C68.4402 71.243 68.4402 71.243 71.125 71.1251C72.0351 71.1071 72.9452 71.089 73.8829 71.0704C74.9309 71.0356 74.9309 71.0356 76 71.0001C76 70.3401 76 69.6801 76 69.0001C76.99 69.0001 77.98 69.0001 79 69.0001C78.67 72.3001 78.34 75.6001 78 79.0001C74.04 79.4951 74.04 79.4951 70 80.0001C70 78.6801 70 77.3601 70 76.0001C71.98 76.0001 73.96 76.0001 76 76.0001C76 75.3401 76 74.6801 76 74.0001C71.71 73.6701 67.42 73.3401 63 73.0001C63 73.6601 63 74.3201 63 75.0001C61.02 75.0001 59.04 75.0001 57 75.0001C57 86.2201 57 97.4401 57 109C74.82 109 92.64 109 111 109C111 97.7801 111 86.5601 111 75.0001C103.129 73.108 103.129 73.108 95.875 73.3751C94.5963 73.5814 93.3175 73.7876 92 74.0001C92 74.6601 92 75.3201 92 76.0001C93.98 76.0001 95.96 76.0001 98 76.0001C98 77.3201 98 78.6401 98 80.0001C95.36 79.6701 92.72 79.3401 90 79.0001C89.67 75.7001 89.34 72.4001 89 69.0001C89.99 69.0001 90.98 69.0001 92 69.0001C92 69.6601 92 70.3201 92 71.0001C97.416 71.3516 97.416 71.3516 102.5 69.8751C104.265 68.0037 104.265 68.0037 104.375 65.0001C104.205 61.8231 104.205 61.8231 102 59.0001C98.9345 58.2667 98.9345 58.2667 96 58.0001C95.505 56.5151 95.505 56.5151 95 55.0001C93.9275 54.897 92.855 54.7939 91.75 54.6876C88 54.0001 88 54.0001 86.0625 52.4376C83.425 50.5993 81.1446 50.4577 77.9688 50.5821C74.519 51.3145 73.0224 53.2424 71 56.0001ZM106 69.0001C105.67 69.9901 105.34 70.9801 105 72.0001C107.97 72.0001 110.94 72.0001 114 72.0001C114 85.2001 114 98.4001 114 112C94.2 112 74.4 112 54 112C54 98.8001 54 85.6001 54 72.0001C56.64 72.0001 59.28 72.0001 62 72.0001C62 71.3401 62 70.6801 62 70.0001C57.545 70.4951 57.545 70.4951 53 71.0001C53 84.8601 53 98.7201 53 113C73.46 113 93.92 113 115 113C115 99.1401 115 85.2801 115 71.0001C112.36 71.0001 109.72 71.0001 107 71.0001C106.505 70.0101 106.505 70.0101 106 69.0001ZM79 116C78.67 117.32 78.34 118.64 78 120C81.96 120 85.92 120 90 120C89.67 118.68 89.34 117.36 89 116C85.7 116 82.4 116 79 116Z" fill="#5A5A5A" fill-opacity="0.35"/>
<path d="M94.2304 3.08582C97.9436 4.86777 101.466 6.89377 105 8.99988C106.766 10.0201 108.533 11.0381 110.301 12.0546C114.362 14.3994 118.407 16.7681 122.445 19.1522C126.982 21.8268 131.54 24.4613 136.117 27.0663C137.299 27.7407 138.481 28.4152 139.663 29.0897C141.922 30.3767 144.183 31.6594 146.446 32.9374C155.696 38.2231 162.53 42.4325 166 52.9999C166.727 59.0457 166.705 65.0428 166.664 71.1249C166.667 72.8803 166.672 74.6356 166.679 76.391C166.686 80.0558 166.675 83.7199 166.652 87.3846C166.623 92.0584 166.64 96.7308 166.67 101.405C166.688 105.025 166.682 108.645 166.669 112.266C166.666 113.988 166.67 115.71 166.681 117.433C166.777 135.461 166.777 135.461 161 143C154.788 149.085 147.035 152.973 139.437 157.062C137.039 158.369 134.644 159.682 132.25 160.996C131.647 161.326 131.043 161.657 130.422 161.997C123.207 165.961 116.12 170.141 109.043 174.344C89.2482 186.03 89.2482 186.03 75.9999 184C70.9606 182.306 66.5461 179.709 61.9999 177C60.2342 175.98 58.4671 174.962 56.6992 173.945C52.6383 171.6 48.5925 169.232 44.5546 166.848C40.0174 164.173 35.4601 161.538 30.8828 158.933C29.7008 158.259 28.5188 157.585 27.3369 156.91C25.0783 155.623 22.8173 154.34 20.5537 153.062C11.3037 147.777 4.46973 143.567 0.999948 133C0.273213 126.954 0.294475 120.957 0.335885 114.875C0.33251 113.12 0.327652 111.364 0.321389 109.609C0.314051 105.944 0.324625 102.28 0.348092 98.6151C0.376579 93.9413 0.36016 89.2689 0.330232 84.5952C0.312077 80.9746 0.317949 77.3544 0.330865 73.7338C0.334176 72.0116 0.3302 70.2894 0.318475 68.5672C0.222635 50.5388 0.222631 50.5388 5.99995 42.9999C12.2121 36.9151 19.9645 33.0267 27.5624 28.9374C29.9608 27.6308 32.3556 26.3178 34.7499 25.0038C35.3533 24.6734 35.9567 24.343 36.5783 24.0026C43.7925 20.0386 50.88 15.8585 57.9572 11.6559C80.3675 -1.57426 80.3675 -1.57426 94.2304 3.08582ZM61.9999 11.9999C61.1268 12.4986 60.2536 12.9973 59.354 13.5111C54.3743 16.3709 49.4208 19.272 44.4804 22.1991C39.9956 24.8492 35.4774 27.4248 30.9257 29.9569C29.7469 30.6179 28.5684 31.2792 27.3901 31.941C25.1471 33.1974 22.8977 34.4423 20.6411 35.674C12.0765 40.5029 5.72998 45.265 2.99995 54.9999C2.81144 57.4996 2.72401 60.008 2.70942 62.5148C2.7027 63.2425 2.69599 63.9702 2.68907 64.7199C2.67016 67.1115 2.66616 69.5028 2.66401 71.8944C2.65758 73.5682 2.65085 75.242 2.64384 76.9158C2.63188 80.4202 2.62816 83.9244 2.62934 87.4288C2.62955 91.9008 2.60225 96.3722 2.5678 100.844C2.54547 104.301 2.5415 107.757 2.54256 111.214C2.54021 112.861 2.53145 114.509 2.5159 116.157C2.43289 125.865 2.44447 134.211 8.70112 142.162C14.5215 146.967 20.8561 150.513 27.4999 154.062C29.9103 155.37 32.3165 156.685 34.7226 158C35.3295 158.33 35.9363 158.661 36.5616 159.002C43.7312 162.92 50.7617 167.076 57.7812 171.256C72.3894 180.778 72.3894 180.778 88.9999 182C94.621 179.831 99.7778 176.988 105 174C105.873 173.501 106.746 173.002 107.646 172.489C112.626 169.629 117.579 166.728 122.519 163.801C127.004 161.151 131.522 158.575 136.074 156.043C137.253 155.382 138.432 154.721 139.61 154.059C141.853 152.802 144.102 151.557 146.359 150.326C154.923 145.497 161.27 140.735 164 131C164.188 128.5 164.276 125.992 164.29 123.485C164.297 122.757 164.304 122.03 164.311 121.28C164.33 118.888 164.334 116.497 164.336 114.105C164.342 112.432 164.349 110.758 164.356 109.084C164.368 105.58 164.372 102.075 164.371 98.5709C164.37 94.0989 164.398 89.6275 164.432 85.1557C164.454 81.6991 164.458 78.2426 164.457 74.786C164.46 73.1383 164.468 71.4906 164.484 69.8429C164.567 60.1351 164.555 51.789 158.299 43.838C152.478 39.033 146.144 35.4866 139.5 31.9374C137.09 30.63 134.683 29.3151 132.277 27.9999C131.367 27.504 131.367 27.504 130.438 26.998C123.269 23.0793 116.238 18.9242 109.219 14.7438C90.4266 3.63862 81.1731 1.02776 61.9999 11.9999Z" fill="#5A5A5A" fill-opacity="0.35"/>
<path d="M83 68C83.99 68.33 84.98 68.66 86 69C86.1949 70.4574 86.3807 71.9159 86.5625 73.375C86.6669 74.1871 86.7713 74.9992 86.8789 75.8359C87 78 87 78 86 80C86.7425 80.0825 87.485 80.165 88.25 80.25C91.6738 81.1838 92.8513 82.1845 95 85C96.659 88.9966 97.0924 91.3945 96.4375 95.6875C94.5626 100.008 92.1513 101.924 88 104C81.8953 104.509 78.8805 104.067 74 100C71.7833 96.675 71.2286 94.9628 71 91C73.5894 83.3612 73.5894 83.3612 77 81C79.6875 80.3125 79.6875 80.3125 82 80C81.7938 78.9481 81.5875 77.8963 81.375 76.8125C81.0004 73.0038 81.2837 71.3316 83 68ZM81 84C82 87 82 87 82 87L81 84ZM86 84C87 87 87 87 87 87L86 84ZM75 89C75 90.65 75 92.3 75 94C75.66 92.68 76.32 91.36 77 90C76.34 89.67 75.68 89.34 75 89ZM91 89C91.33 90.65 91.66 92.3 92 94C92.33 94 92.66 94 93 94C93 92.35 93 90.7 93 89C92.34 89 91.68 89 91 89ZM80 90C80 91.32 80 92.64 80 94C80.66 94 81.32 94 82 94C82 92.68 82 91.36 82 90C81.34 90 80.68 90 80 90ZM86 90C86 91.32 86 92.64 86 94C86.66 94 87.32 94 88 94C88 92.68 88 91.36 88 90C87.34 90 86.68 90 86 90ZM81 97C82 99 82 99 82 99L81 97ZM86 97C87 99 87 99 87 99L86 97Z" fill="#5A5A5A" fill-opacity="0.35"/>
<path d="M84 56.875C85.0519 56.8711 85.0519 56.8711 86.125 56.8672C88 57 88 57 90 58C90 58.99 90 59.98 90 61C89.34 61 88.68 61 88 61C87.67 62.98 87.34 64.96 87 67C85.02 67 83.04 67 81 67C80.67 65.02 80.34 63.04 80 61C79.34 61 78.68 61 78 61C78 60.01 78 59.02 78 58C80.2451 56.8774 81.5146 56.8659 84 56.875Z" fill="#5A5A5A" fill-opacity="0.35"/>
</svg>
