<svg width="167" height="186" viewBox="0 0 167 186" fill="none" xmlns="http://www.w3.org/2000/svg">
<path d="M94.2304 3.08582C97.9436 4.86777 101.466 6.89377 105 8.99988C106.766 10.0201 108.533 11.0381 110.301 12.0546C114.362 14.3994 118.407 16.7681 122.445 19.1522C126.982 21.8268 131.54 24.4613 136.117 27.0663C137.299 27.7407 138.481 28.4152 139.663 29.0897C141.922 30.3767 144.183 31.6594 146.446 32.9374C155.696 38.2231 162.53 42.4325 166 52.9999C166.727 59.0457 166.705 65.0428 166.664 71.1249C166.667 72.8803 166.672 74.6356 166.679 76.391C166.686 80.0558 166.675 83.7199 166.652 87.3846C166.623 92.0584 166.64 96.7308 166.67 101.405C166.688 105.025 166.682 108.645 166.669 112.266C166.666 113.988 166.67 115.71 166.681 117.433C166.777 135.461 166.777 135.461 161 143C154.788 149.085 147.035 152.973 139.437 157.062C137.039 158.369 134.644 159.682 132.25 160.996C131.647 161.326 131.043 161.657 130.422 161.997C123.207 165.961 116.12 170.141 109.043 174.344C89.2482 186.03 89.2482 186.03 75.9999 184C70.9606 182.306 66.5461 179.709 61.9999 177C60.2342 175.98 58.4671 174.962 56.6992 173.945C52.6383 171.6 48.5925 169.232 44.5546 166.848C40.0174 164.173 35.4601 161.538 30.8828 158.933C29.7008 158.259 28.5188 157.585 27.3369 156.91C25.0783 155.623 22.8173 154.34 20.5537 153.062C11.3037 147.777 4.46973 143.567 0.999948 133C0.273213 126.954 0.294475 120.957 0.335885 114.875C0.33251 113.12 0.327652 111.364 0.321389 109.609C0.314051 105.944 0.324625 102.28 0.348092 98.6151C0.376579 93.9413 0.36016 89.2689 0.330232 84.5952C0.312077 80.9746 0.317949 77.3544 0.330865 73.7338C0.334176 72.0116 0.3302 70.2894 0.318475 68.5672C0.222635 50.5388 0.222631 50.5388 5.99995 42.9999C12.2121 36.9151 19.9645 33.0267 27.5624 28.9374C29.9608 27.6308 32.3556 26.3178 34.7499 25.0038C35.3533 24.6734 35.9567 24.343 36.5783 24.0026C43.7925 20.0386 50.88 15.8585 57.9572 11.6559C80.3675 -1.57426 80.3675 -1.57426 94.2304 3.08582ZM61.9999 11.9999C61.1268 12.4986 60.2536 12.9973 59.354 13.5111C54.3743 16.3709 49.4208 19.272 44.4804 22.1991C39.9956 24.8492 35.4774 27.4248 30.9257 29.9569C29.7469 30.6179 28.5684 31.2792 27.3901 31.941C25.1471 33.1974 22.8977 34.4423 20.6411 35.674C12.0765 40.5029 5.72998 45.265 2.99995 54.9999C2.81144 57.4996 2.72401 60.008 2.70942 62.5148C2.7027 63.2425 2.69599 63.9702 2.68907 64.7199C2.67016 67.1115 2.66616 69.5028 2.66401 71.8944C2.65758 73.5682 2.65085 75.242 2.64384 76.9158C2.63188 80.4202 2.62816 83.9244 2.62934 87.4288C2.62955 91.9008 2.60225 96.3722 2.5678 100.844C2.54547 104.301 2.5415 107.757 2.54256 111.214C2.54021 112.861 2.53145 114.509 2.5159 116.157C2.43289 125.865 2.44447 134.211 8.70112 142.162C14.5215 146.967 20.8561 150.513 27.4999 154.062C29.9103 155.37 32.3165 156.685 34.7226 158C35.3295 158.33 35.9363 158.661 36.5616 159.002C43.7312 162.92 50.7617 167.076 57.7812 171.256C72.3894 180.778 72.3894 180.778 88.9999 182C94.621 179.831 99.7778 176.988 105 174C105.873 173.501 106.746 173.002 107.646 172.489C112.626 169.629 117.579 166.728 122.519 163.801C127.004 161.151 131.522 158.575 136.074 156.043C137.253 155.382 138.432 154.721 139.61 154.059C141.853 152.802 144.102 151.557 146.359 150.326C154.923 145.497 161.27 140.735 164 131C164.188 128.5 164.276 125.992 164.29 123.485C164.297 122.757 164.304 122.03 164.311 121.28C164.33 118.888 164.334 116.497 164.336 114.105C164.342 112.432 164.349 110.758 164.356 109.084C164.368 105.58 164.372 102.075 164.371 98.5709C164.37 94.0989 164.398 89.6275 164.432 85.1557C164.454 81.6991 164.458 78.2426 164.457 74.786C164.46 73.1383 164.468 71.4906 164.484 69.8429C164.567 60.1351 164.555 51.789 158.299 43.838C152.478 39.033 146.144 35.4866 139.5 31.9374C137.09 30.63 134.683 29.3151 132.277 27.9999C131.367 27.504 131.367 27.504 130.438 26.998C123.269 23.0793 116.238 18.9242 109.219 14.7438C90.4266 3.63862 81.1731 1.02776 61.9999 11.9999Z" fill="#5A5A5A" fill-opacity="0.35"/>
<path d="M73 56C75.31 56 77.62 56 80 56C80.66 57.32 81.32 58.64 82 60C84.3856 59.4242 86.6668 58.7777 89 58C91.1875 58.9375 91.1875 58.9375 93 60C93 61.98 93 63.96 93 66C95.4906 66.6871 97.3789 67 100 67C102.09 70.4423 102.09 70.4423 101.688 72.9375C101.461 73.6181 101.234 74.2987 101 75C100.659 76.6652 100.324 78.3316 100 80C101.65 80.33 103.3 80.66 105 81C105 83.31 105 85.62 105 88C102.525 88.495 102.525 88.495 100 89C100.69 92.5704 100.69 92.5704 101.688 96.0625C102.099 98.6135 101.207 99.7761 100 102C100.808 102.724 101.616 103.449 102.449 104.195C103.529 105.172 104.608 106.148 105.688 107.125C106.218 107.599 106.748 108.074 107.295 108.562C116.795 117.188 116.795 117.188 117.375 122.312C117 125 117 125 116 126C113.387 126.488 113.387 126.488 110 126C107.281 124.036 105.083 121.646 102.812 119.188C102.197 118.545 101.581 117.902 100.947 117.24C99.8013 116.042 98.6616 114.838 97.5305 113.626C96.0494 112.052 94.5355 110.52 93 109C91.02 109.66 89.04 110.32 87 111C86.34 110.34 85.68 109.68 85 109C84.01 109 83.02 109 82 109C81.34 110.32 80.68 111.64 80 113C77.69 113 75.38 113 73 113C72.505 110.525 72.505 110.525 72 108C71.2369 108.309 70.4737 108.619 69.6875 108.938C67.8121 109.679 65.9132 110.362 64 111C61.8125 109.875 61.8125 109.875 60 108C59.75 105.312 59.75 105.312 60 103C59.1338 102.814 59.1338 102.814 58.25 102.625C55.8626 101.962 54.0469 101.412 52 100C50.932 97.1011 50.7116 95.673 51.9375 92.8125C52.2881 92.2144 52.6387 91.6162 53 91C53 90.34 53 89.68 53 89C51.68 88.67 50.36 88.34 49 88C49 85.69 49 83.38 49 81C50.32 80.67 51.64 80.34 53 80C52.3119 76.419 52.3119 76.419 51.25 72.9375C51 71 51 71 52.125 68.75C54 67 54 67 56.6875 66.75C57.4506 66.8325 58.2138 66.915 59 67C60.0461 64.1947 60.0461 64.1947 60.25 61.9375C61 60 61 60 63.5625 58.75C64.3669 58.5025 65.1712 58.255 66 58C66.66 58.66 67.32 59.32 68 60C68.99 60 69.98 60 71 60C71.66 58.68 72.32 57.36 73 56ZM76 59C75.67 60.32 75.34 61.64 75 63C67.375 64.25 67.375 64.25 64 62C63.7113 63.1137 63.4225 64.2275 63.125 65.375C62 69 62 69 60 71C57.375 71.125 57.375 71.125 55 71C55.0722 71.6149 55.1444 72.2298 55.2188 72.8633C55.3116 73.6715 55.4044 74.4798 55.5 75.3125C55.5928 76.113 55.6856 76.9135 55.7812 77.7383C56 80 56 80 56 83C54.68 83 53.36 83 52 83C52.33 83.99 52.66 84.98 53 86C53.99 86 54.98 86 56 86C56.0271 87.4374 56.0465 88.8749 56.0625 90.3125C56.0741 91.113 56.0857 91.9135 56.0977 92.7383C56 95 56 95 55 98C55.7631 97.9381 56.5263 97.8762 57.3125 97.8125C60 98 60 98 61.75 99.125C63.4399 101.66 63.6673 104.006 64 107C64.99 106.34 65.98 105.68 67 105C70.5625 105.125 70.5625 105.125 74 106C75.4375 108.062 75.4375 108.062 76 110C76.66 110 77.32 110 78 110C78 108.68 78 107.36 78 106C85.625 104.75 85.625 104.75 89 107C90.1249 104.989 90.1249 104.989 90.4375 102.5C91 100 91 100 93 98C95.625 97.875 95.625 97.875 98 98C97.835 96.7625 97.67 95.525 97.5 94.25C97.1229 91.4218 97 88.8844 97 86C98.65 85.67 100.3 85.34 102 85C101.505 84.01 101.505 84.01 101 83C100.01 82.67 99.02 82.34 98 82C96.875 74.375 96.875 74.375 98 71C97.2369 71.0619 96.4737 71.1238 95.6875 71.1875C93 71 93 71 91.1875 69.8125C89.6332 67.4402 89.7746 65.7796 90 63C86.9473 62.8419 86.9473 62.8419 84 64C81.9912 63.7243 79.9882 63.3976 78 63C78 61.68 78 60.36 78 59C77.34 59 76.68 59 76 59ZM93 102C94.65 103.98 96.3 105.96 98 108C98.3158 105.025 98.3158 105.025 96.625 103.312C95.0888 101.791 95.0888 101.791 93 102ZM101 109C100.673 112.217 100.673 112.217 103.336 114.699C104.341 115.703 105.355 116.699 106.375 117.688C106.883 118.199 107.391 118.71 107.914 119.236C110.482 122.107 110.482 122.107 114 123C112.615 118.761 110.673 116.293 107.5 113.188C106.706 112.397 105.912 111.607 105.094 110.793C103.206 108.783 103.206 108.783 101 109Z" fill="#5A5A5A" fill-opacity="0.35"/>
<path d="M86.8125 67.6876C91.1048 70.8016 93.3307 73.9922 95 79.0001C95.5075 85.2168 95.772 90.768 92 96.0001C88.0547 100.437 84.1583 102.914 78.2617 103.875C72.6735 104.184 68.5838 102.75 64.1875 99.3126C59.7636 95.1311 57.8952 90.6142 57.5625 84.5626C57.7798 79.0162 59.6694 74.5795 63.3906 70.461C70.3004 64.2422 78.6423 63.4973 86.8125 67.6876ZM63.6875 75.1876C61.378 79.0368 60.8952 82.5401 61 87.0001C61.7886 89.9467 61.7886 89.9467 63 92.0001C63.33 91.0101 63.66 90.0201 64 89.0001C65.8563 89.031 65.8563 89.031 67.75 89.0626C70.6906 89.073 73.1594 88.7955 76 88.0001C76.33 88.3301 76.66 88.6601 77 89.0001C79.0196 89.0725 81.0417 89.0839 83.0625 89.0626C84.1672 89.0536 85.272 89.0446 86.4102 89.0353C87.2648 89.0237 88.1195 89.0121 89 89.0001C89.33 90.3201 89.66 91.6401 90 93.0001C92.2923 88.2722 92.989 84.0009 91.3125 78.9142C89.1701 74.1117 86.9389 71.1952 82 69.0001C73.9757 67.7455 69.5555 69.6368 63.6875 75.1876ZM64 93.0001C66.9474 97.0001 69.1208 99.5499 74.1484 100.336C79.6111 100.432 82.692 99.6777 87 96.0001C87.66 95.0101 88.32 94.0201 89 93.0001C87.0834 92.973 85.1667 92.9536 83.25 92.9376C82.1827 92.926 81.1153 92.9144 80.0156 92.9024C77.4573 92.9853 75.4487 93.365 73 94.0001C72.67 93.6701 72.34 93.3401 72 93.0001C69.3294 92.8589 66.6757 92.9576 64 93.0001Z" fill="#5A5A5A" fill-opacity="0.35"/>
<path d="M73 74.9999C75.7666 75.2614 78.5379 75.4111 81.3125 75.5624C82.0531 75.6056 82.7936 75.6488 83.5566 75.6932C85.3709 75.7986 87.1854 75.8997 89 75.9999C89 76.9899 89 77.9799 89 78.9999C87.9404 79.0489 86.8808 79.0979 85.7891 79.1483C84.401 79.2234 83.013 79.2989 81.625 79.3749C80.577 79.4213 80.577 79.4213 79.5078 79.4686C75.2981 79.5949 75.2981 79.5949 72 81.9999C69.375 81.6249 69.375 81.6249 67 80.9999C67 80.3399 67 79.6799 67 78.9999C66.01 78.9999 65.02 78.9999 64 78.9999C64 78.0099 64 77.0199 64 75.9999C67.4908 73.802 69.0626 74.1867 73 74.9999Z" fill="#5A5A5A" fill-opacity="0.35"/>
<path d="M79 81C82.8565 80.7796 85.4922 81.3964 89 83C89 83.99 89 84.98 89 86C85.05 87.9185 83.2087 87.8885 79 87C76.3932 86.7811 73.7978 86.5898 71.1875 86.4375C70.1482 86.3727 70.1482 86.3727 69.0879 86.3066C67.3921 86.2013 65.6961 86.1002 64 86C64 85.01 64 84.02 64 83C68.95 83 73.9 83 79 83C79 82.34 79 81.68 79 81Z" fill="#5A5A5A" fill-opacity="0.35"/>
</svg>
