<svg width="167" height="186" viewBox="0 0 167 186" fill="none" xmlns="http://www.w3.org/2000/svg">
<path d="M94.2304 3.08582C97.9436 4.86777 101.466 6.89377 105 8.99988C106.766 10.0201 108.533 11.0381 110.301 12.0546C114.362 14.3994 118.407 16.7681 122.445 19.1522C126.982 21.8268 131.54 24.4613 136.117 27.0663C137.299 27.7407 138.481 28.4152 139.663 29.0897C141.922 30.3767 144.183 31.6594 146.446 32.9374C155.696 38.2231 162.53 42.4325 166 52.9999C166.727 59.0457 166.705 65.0428 166.664 71.1249C166.667 72.8803 166.672 74.6356 166.679 76.391C166.686 80.0558 166.675 83.7199 166.652 87.3846C166.623 92.0584 166.64 96.7308 166.67 101.405C166.688 105.025 166.682 108.645 166.669 112.266C166.666 113.988 166.67 115.71 166.681 117.433C166.777 135.461 166.777 135.461 161 143C154.788 149.085 147.035 152.973 139.437 157.062C137.039 158.369 134.644 159.682 132.25 160.996C131.647 161.326 131.043 161.657 130.422 161.997C123.207 165.961 116.12 170.141 109.043 174.344C89.2482 186.03 89.2482 186.03 75.9999 184C70.9606 182.306 66.5461 179.709 61.9999 177C60.2342 175.98 58.4671 174.962 56.6992 173.945C52.6383 171.6 48.5925 169.232 44.5546 166.848C40.0174 164.173 35.4601 161.538 30.8828 158.933C29.7008 158.259 28.5188 157.585 27.3369 156.91C25.0783 155.623 22.8173 154.34 20.5537 153.062C11.3037 147.777 4.46973 143.567 0.999948 133C0.273213 126.954 0.294475 120.957 0.335885 114.875C0.33251 113.12 0.327652 111.364 0.321389 109.609C0.314051 105.944 0.324625 102.28 0.348092 98.6151C0.376579 93.9413 0.36016 89.2689 0.330232 84.5952C0.312077 80.9746 0.317949 77.3544 0.330865 73.7338C0.334176 72.0116 0.3302 70.2894 0.318475 68.5672C0.222635 50.5388 0.222631 50.5388 5.99995 42.9999C12.2121 36.9151 19.9645 33.0267 27.5624 28.9374C29.9608 27.6308 32.3556 26.3178 34.7499 25.0038C35.3533 24.6734 35.9567 24.343 36.5783 24.0026C43.7925 20.0386 50.88 15.8585 57.9572 11.6559C80.3675 -1.57426 80.3675 -1.57426 94.2304 3.08582ZM61.9999 11.9999C61.1268 12.4986 60.2536 12.9973 59.354 13.5111C54.3743 16.3709 49.4208 19.272 44.4804 22.1991C39.9956 24.8492 35.4774 27.4248 30.9257 29.9569C29.7469 30.6179 28.5684 31.2792 27.3901 31.941C25.1471 33.1974 22.8977 34.4423 20.6411 35.674C12.0765 40.5029 5.72998 45.265 2.99995 54.9999C2.81144 57.4996 2.72401 60.008 2.70942 62.5148C2.7027 63.2425 2.69599 63.9702 2.68907 64.7199C2.67016 67.1115 2.66616 69.5028 2.66401 71.8944C2.65758 73.5682 2.65085 75.242 2.64384 76.9158C2.63188 80.4202 2.62816 83.9244 2.62934 87.4288C2.62955 91.9008 2.60225 96.3722 2.5678 100.844C2.54547 104.301 2.5415 107.757 2.54256 111.214C2.54021 112.861 2.53145 114.509 2.5159 116.157C2.43289 125.865 2.44447 134.211 8.70112 142.162C14.5215 146.967 20.8561 150.513 27.4999 154.062C29.9103 155.37 32.3165 156.685 34.7226 158C35.3295 158.33 35.9363 158.661 36.5616 159.002C43.7312 162.92 50.7617 167.076 57.7812 171.256C72.3894 180.778 72.3894 180.778 88.9999 182C94.621 179.831 99.7778 176.988 105 174C105.873 173.501 106.746 173.002 107.646 172.489C112.626 169.629 117.579 166.728 122.519 163.801C127.004 161.151 131.522 158.575 136.074 156.043C137.253 155.382 138.432 154.721 139.61 154.059C141.853 152.802 144.102 151.557 146.359 150.326C154.923 145.497 161.27 140.735 164 131C164.188 128.5 164.276 125.992 164.29 123.485C164.297 122.757 164.304 122.03 164.311 121.28C164.33 118.888 164.334 116.497 164.336 114.105C164.342 112.432 164.349 110.758 164.356 109.084C164.368 105.58 164.372 102.075 164.371 98.5709C164.37 94.0989 164.398 89.6275 164.432 85.1557C164.454 81.6991 164.458 78.2426 164.457 74.786C164.46 73.1383 164.468 71.4906 164.484 69.8429C164.567 60.1351 164.555 51.789 158.299 43.838C152.478 39.033 146.144 35.4866 139.5 31.9374C137.09 30.63 134.683 29.3151 132.277 27.9999C131.367 27.504 131.367 27.504 130.438 26.998C123.269 23.0793 116.238 18.9242 109.219 14.7438C90.4266 3.63862 81.1731 1.02776 61.9999 11.9999Z" fill="#5A5A5A" fill-opacity="0.35"/>
<path d="M68 97.0001C69.8201 97.892 69.8201 97.892 71.6523 98.9884C76.3586 101.45 80.5806 101.559 85.8125 101.563C87.4858 101.572 89.1591 101.593 90.832 101.629C91.9261 101.63 91.9261 101.63 93.0422 101.631C95.5531 102.104 96.4095 103.043 98 105C98.495 105.99 98.495 105.99 99 107C100.438 106.69 101.875 106.377 103.312 106.063C104.113 105.889 104.914 105.715 105.738 105.535C108.145 105.001 108.145 105.001 111 104C117.193 103.558 117.193 103.558 119.938 105.063C121.555 108.012 121.186 110.709 121 114C114.065 117.286 106.977 119.806 99.6875 122.188C98.6169 122.543 97.5464 122.898 96.4434 123.264C77.4924 129.517 77.4924 129.517 69 125.625C68.01 125.089 67.02 124.553 66 124C62.0248 123.153 58.0256 122.554 54 122C54 123.32 54 124.64 54 126C50.04 126 46.08 126 42 126C42 117.09 42 108.18 42 99.0001C45.5156 99.0652 49.0312 99.1303 52.5469 99.1954C58.1387 98.8791 62.0964 96.0662 68 97.0001ZM54 104C54 108.95 54 113.9 54 119C56.1862 119.268 58.3725 119.536 60.625 119.813C64.5347 120.292 67.4707 120.719 70.9609 122.574C77.9109 125.835 84.5675 123.585 91.5 121.375C92.3621 121.109 93.2241 120.842 94.1123 120.568C102.195 118.029 110.119 115.104 118 112C118 110.68 118 109.36 118 108C112.894 106.227 109.28 108.1 104.5 109.938C96.7019 112.766 90.3375 113.796 82 113C81.67 112.34 81.34 111.68 81 111C85.29 111 89.58 111 94 111C94.33 109.35 94.66 107.7 95 106C92.7307 104.865 91.4147 104.862 88.8945 104.824C88.0753 104.8 87.2561 104.777 86.4121 104.752C84.6988 104.71 82.9852 104.678 81.2715 104.658C75.3411 104.459 71.9602 103.245 67 100C62.0279 98.9802 58.2677 101.685 54 104ZM45 102C45 108.93 45 115.86 45 123C46.98 123 48.96 123 51 123C51 116.07 51 109.14 51 102C49.02 102 47.04 102 45 102Z" fill="#5A5A5A" fill-opacity="0.35"/>
<path d="M76 49C77.9375 49.8125 77.9375 49.8125 80 51C80.33 51.99 80.66 52.98 81 54C81.99 54 82.98 54 84 54C84 52.35 84 50.7 84 49C84.99 49 85.98 49 87 49C87.33 50.32 87.66 51.64 88 53C88.6187 52.34 89.2375 51.68 89.875 51C92 49 92 49 94 49C93.494 51.1687 93.0002 52.9997 92 55C92.7425 55.2062 93.485 55.4125 94.25 55.625C98.0597 57.5298 99.1707 59.1382 101 63C101.925 68.6093 101.911 73.2699 98.5625 78C98.1049 78.6226 97.6473 79.2452 97.1758 79.8867C95.2801 83.294 95.2921 86.7463 95.1406 90.582C95 93 95 93 94 96C90.662 98.7946 89.0402 100.077 84.625 99.75C83.7587 99.5025 82.8925 99.255 82 99C81.505 97.515 81.505 97.515 81 96C80.01 95.67 79.02 95.34 78 95C78.0619 93.845 78.1237 92.69 78.1875 91.5C78.1875 85.1042 76.0167 79.9296 72 75C70.4352 70.3058 70.4032 66.492 72.25 61.875C73.9758 59.0398 75.8476 56.5235 78 54C77.34 53.34 76.68 52.68 76 52C76 51.01 76 50.02 76 49ZM75.125 62.3125C73.6205 65.9065 73.4741 68.1213 74 72C75.1451 74.1548 76.4367 76.1239 77.8203 78.1328C79.2329 80.3686 79.7539 82.3754 80 85C80.99 85 81.98 85 83 85C83 81.37 83 77.74 83 74C81.68 73.34 80.36 72.68 79 72C79 70.35 79 68.7 79 67C82.75 65.875 82.75 65.875 85 67C86.125 69.0625 86.125 69.0625 87 71C87.33 69.68 87.66 68.36 88 67C91.75 65.875 91.75 65.875 94 67C94 68.65 94 70.3 94 72C92.02 72.99 92.02 72.99 90 74C90 77.63 90 81.26 90 85C90.66 85 91.32 85 92 85C92.3809 84.1299 92.3809 84.1299 92.7695 83.2422C93.1137 82.461 93.4579 81.6798 93.8125 80.875C94.1734 80.05 94.5344 79.225 94.9062 78.375C96 76 96 76 97.8125 72.875C99.389 69.0581 99.1481 66.9467 98 63C94.5165 58.7634 91.5645 56.3345 86.125 55.625C81.1789 56.2185 78.2222 58.4926 75.125 62.3125ZM81 68C81 68.99 81 69.98 81 71C81.66 71 82.32 71 83 71C83 70.01 83 69.02 83 68C82.34 68 81.68 68 81 68ZM90 68C90 68.99 90 69.98 90 71C90.66 71 91.32 71 92 71C92 70.01 92 69.02 92 68C91.34 68 90.68 68 90 68ZM86 74C86 77.63 86 81.26 86 85C86.33 85 86.66 85 87 85C87 81.37 87 77.74 87 74C86.67 74 86.34 74 86 74ZM82 87C82 87.33 82 87.66 82 88C84.97 88 87.94 88 91 88C91 87.67 91 87.34 91 87C88.03 87 85.06 87 82 87Z" fill="#5A5A5A" fill-opacity="0.35"/>
</svg>
