<svg width="190" height="209" viewBox="0 0 190 209" fill="none" xmlns="http://www.w3.org/2000/svg">
<path opacity="0.965" fill-rule="evenodd" clip-rule="evenodd" d="M115.143 7.00894C77.3727 22.3932 39.7061 38.0599 2.14331 54.0089C4.92701 48.0578 9.26031 43.5578 15.1433 40.5089C37.1433 27.8422 59.1433 15.1756 81.1433 2.50894C93.4163 -1.95932 104.749 -0.459321 115.143 7.00894Z" fill="#425DA9"/>
<path opacity="0.01" fill-rule="evenodd" clip-rule="evenodd" d="M19.1433 7.00906C18.7467 8.03406 18.0801 8.20076 17.1433 7.50906C17.7377 7.04472 18.4044 6.87805 19.1433 7.00906Z" fill="black"/>
<path opacity="0.992" fill-rule="evenodd" clip-rule="evenodd" d="M115.143 7.00903C120.476 10.009 125.81 13.009 131.143 16.009C87.6563 34.9145 43.9896 53.5811 0.143356 72.009C-0.321744 65.8198 0.344857 59.8198 2.14336 54.009C39.7062 38.06 77.3728 22.3933 115.143 7.00903Z" fill="#475FAA"/>
<path opacity="0.995" fill-rule="evenodd" clip-rule="evenodd" d="M131.143 16.009C137.01 19.1051 142.676 22.4384 148.143 26.009C98.8813 46.9913 49.5482 67.9913 0.143311 89.009C0.143311 83.3423 0.143311 77.6757 0.143311 72.009C43.9895 53.5811 87.6562 34.9145 131.143 16.009Z" fill="#4E62AB"/>
<path opacity="0.995" fill-rule="evenodd" clip-rule="evenodd" d="M148.143 26.009C152.507 27.8527 156.507 30.186 160.143 33.009C134.143 44.3423 108.143 55.6757 82.1433 67.009C81.1433 67.009 80.1433 67.009 79.1433 67.009C78.81 67.009 78.4766 67.009 78.1433 67.009C72.81 67.009 67.4766 67.009 62.1433 67.009C61.1666 69.7959 60.8333 72.7959 61.1433 76.009C40.7023 84.0623 20.369 92.3956 0.143311 101.009C0.143311 97.009 0.143311 93.009 0.143311 89.009C49.5482 67.9913 98.8813 46.9913 148.143 26.009Z" fill="#5464AC"/>
<path opacity="0.989" fill-rule="evenodd" clip-rule="evenodd" d="M160.143 33.009C164.479 34.841 168.479 37.1744 172.143 40.009C151.239 48.6371 130.573 57.6371 110.143 67.009C109.476 67.009 108.81 67.009 108.143 67.009C107.477 70.5298 106.81 74.1965 106.143 78.009C105.471 76.5598 104.804 75.2265 104.143 74.009C103.905 71.3607 102.571 69.5273 100.143 68.509C94.5713 67.1583 88.905 66.6583 83.1433 67.009C82.81 67.009 82.4766 67.009 82.1433 67.009C108.143 55.6757 134.143 44.3423 160.143 33.009Z" fill="#5A66AD"/>
<path opacity="0.988" fill-rule="evenodd" clip-rule="evenodd" d="M172.143 40.009C176.867 42.0383 180.867 45.0383 184.143 49.009C165.896 56.8695 147.563 64.5362 129.143 72.009C127.21 69.9132 124.876 68.4132 122.143 67.509C118.157 67.0102 114.157 66.8435 110.143 67.009C130.573 57.6371 151.239 48.6371 172.143 40.009Z" fill="#6169AE"/>
<path opacity="0.997" fill-rule="evenodd" clip-rule="evenodd" d="M184.143 49.009C188.231 54.2804 189.898 60.2804 189.143 67.009C157.656 80.1652 126.323 93.4985 95.1433 107.009C93.1433 107.009 91.1433 107.009 89.1433 107.009C88.81 107.009 88.4766 107.009 88.1433 107.009C85.7865 106.846 83.4531 107.012 81.1433 107.509C79.1675 110.962 77.3342 114.462 75.6433 118.009C73.9524 114.462 72.1191 110.962 70.1433 107.509C68.9766 107.342 67.81 107.176 66.6433 107.009C64.9622 107.117 63.7955 107.784 63.1433 109.009C62.8605 109.798 62.3605 110.465 61.6433 111.009C61.4333 109.451 60.9333 108.118 60.1433 107.009C57.3964 106.696 54.7298 107.029 52.1433 108.009C49.5457 113.968 47.0457 119.968 44.6433 126.009C42.3725 120.692 40.2059 115.359 38.1433 110.009C50.4298 105.527 62.4298 100.527 74.1433 95.009C76.4245 95.4317 78.0912 94.765 79.1433 93.009C80.1392 93.0948 80.9725 92.7614 81.6433 92.009C82.143 83.6823 82.3097 75.349 82.1433 67.009C82.4766 67.009 82.81 67.009 83.1433 67.009C83.1433 76.3423 83.1433 85.6757 83.1433 95.009C85.1433 95.009 87.1433 95.009 89.1433 95.009C88.8207 91.283 89.1541 87.6163 90.1433 84.009C92.5873 87.3861 94.9213 90.8861 97.1433 94.509C99.5453 95.3231 101.878 95.1564 104.143 94.009C102.143 90.6757 100.143 87.3423 98.1433 84.009C102.69 82.253 104.69 78.9197 104.143 74.009C104.804 75.2265 105.471 76.5598 106.143 78.009C106.81 74.1965 107.477 70.5298 108.143 67.009C108.143 76.3423 108.143 85.6757 108.143 95.009C110.143 95.009 112.143 95.009 114.143 95.009C114.143 91.6757 114.143 88.3423 114.143 85.009C124.317 86.4438 129.317 82.1105 129.143 72.009C147.563 64.5362 165.896 56.8695 184.143 49.009Z" fill="#6D6DB0"/>
<path fill-rule="evenodd" clip-rule="evenodd" d="M62.1433 67.009C67.4766 67.009 72.81 67.009 78.1433 67.009C78.1433 68.6757 78.1433 70.3423 78.1433 72.009C74.6014 71.6962 71.2681 72.0296 68.1433 73.009C68.1433 74.6757 68.1433 76.3423 68.1433 78.009C71.1433 78.009 74.1433 78.009 77.1433 78.009C77.1433 79.6757 77.1433 81.3423 77.1433 83.009C74.1433 83.009 71.1433 83.009 68.1433 83.009C68.1433 85.3423 68.1433 87.6757 68.1433 90.009C71.81 90.009 75.4766 90.009 79.1433 90.009C79.1433 91.009 79.1433 92.009 79.1433 93.009C78.0912 94.765 76.4245 95.4317 74.1433 95.009C70.1433 95.009 66.1433 95.009 62.1433 95.009C62.1433 85.6757 62.1433 76.3423 62.1433 67.009Z" fill="#EDA9DF"/>
<path fill-rule="evenodd" clip-rule="evenodd" d="M83.1433 67.0091C88.905 66.6584 94.5713 67.1584 100.143 68.5091C102.571 69.5274 103.905 71.3608 104.143 74.0091C104.69 78.9198 102.69 82.2531 98.1433 84.0091C100.143 87.3424 102.143 90.6758 104.143 94.0091C101.878 95.1565 99.5453 95.3232 97.1433 94.5091C94.9213 90.8862 92.5873 87.3862 90.1433 84.0091C89.1541 87.6164 88.8207 91.2831 89.1433 95.0091C87.1433 95.0091 85.1433 95.0091 83.1433 95.0091C83.1433 85.6758 83.1433 76.3424 83.1433 67.0091Z" fill="#EBA9DF"/>
<path fill-rule="evenodd" clip-rule="evenodd" d="M108.143 67.0091C108.81 67.0091 109.476 67.0091 110.143 67.0091C114.157 66.8436 118.157 67.0103 122.143 67.5091C124.876 68.4133 127.21 69.9133 129.143 72.0091C129.317 82.1106 124.317 86.4439 114.143 85.0091C114.143 88.3424 114.143 91.6758 114.143 95.0091C112.143 95.0091 110.143 95.0091 108.143 95.0091C108.143 85.6758 108.143 76.3424 108.143 67.0091Z" fill="#ECA9DF"/>
<path fill-rule="evenodd" clip-rule="evenodd" d="M189.143 67.009C189.143 70.3423 189.143 73.6757 189.143 77.009C165.656 86.8318 142.323 96.8318 119.143 107.009C117.143 107.009 115.143 107.009 113.143 107.009C112.239 107.718 111.906 108.718 112.143 110.009C111.81 110.009 111.476 110.009 111.143 110.009C111.38 108.718 111.047 107.718 110.143 107.009C105.143 107.009 100.143 107.009 95.1433 107.009C126.323 93.4985 157.656 80.1652 189.143 67.009Z" fill="#736FB1"/>
<path fill-rule="evenodd" clip-rule="evenodd" d="M78.1433 67.009C78.4766 67.009 78.81 67.009 79.1433 67.009C79.1433 69.009 79.1433 71.009 79.1433 73.009C75.4766 73.009 71.81 73.009 68.1433 73.009C71.2681 72.0296 74.6014 71.6962 78.1433 72.009C78.1433 70.3423 78.1433 68.6757 78.1433 67.009Z" fill="#A88AC8"/>
<path fill-rule="evenodd" clip-rule="evenodd" d="M95.1433 73.009C93.4763 73.009 91.8103 73.009 90.1433 73.009C90.1433 75.009 90.1433 77.009 90.1433 79.009C91.8103 79.009 93.4763 79.009 95.1433 79.009C93.3783 79.9704 91.3783 80.3037 89.1433 80.009C89.1433 77.3423 89.1433 74.6757 89.1433 72.009C91.3783 71.7143 93.3783 72.0476 95.1433 73.009Z" fill="#9581C0"/>
<path fill-rule="evenodd" clip-rule="evenodd" d="M95.1433 73.009C97.8103 75.009 97.8103 77.009 95.1433 79.009C93.4763 79.009 91.8103 79.009 90.1433 79.009C90.1433 77.009 90.1433 75.009 90.1433 73.009C91.8103 73.009 93.4763 73.009 95.1433 73.009Z" fill="#5F68AE"/>
<path fill-rule="evenodd" clip-rule="evenodd" d="M120.143 73.009C118.476 73.009 116.81 73.009 115.143 73.009C115.143 75.009 115.143 77.009 115.143 79.009C116.81 79.009 118.476 79.009 120.143 79.009C118.378 79.9704 116.378 80.3037 114.143 80.009C114.143 77.3423 114.143 74.6757 114.143 72.009C116.378 71.7143 118.378 72.0476 120.143 73.009Z" fill="#9982C1"/>
<path fill-rule="evenodd" clip-rule="evenodd" d="M61.1433 76.009C61.4368 79.9457 61.1034 83.779 60.1433 87.509C40.0733 95.9188 20.0733 104.419 0.143311 113.009C0.143311 109.009 0.143311 105.009 0.143311 101.009C20.369 92.3956 40.7023 84.0623 61.1433 76.009Z" fill="#5A66AD"/>
<path fill-rule="evenodd" clip-rule="evenodd" d="M120.143 73.009C122.81 75.009 122.81 77.009 120.143 79.009C118.476 79.009 116.81 79.009 115.143 79.009C115.143 77.009 115.143 75.009 115.143 73.009C116.81 73.009 118.476 73.009 120.143 73.009Z" fill="#686CB0"/>
<path fill-rule="evenodd" clip-rule="evenodd" d="M189.143 77.009C189.143 80.3423 189.143 83.6757 189.143 87.009C171.81 94.3423 154.476 101.676 137.143 109.009C135.364 107.165 133.031 106.499 130.143 107.009C130.143 110.676 130.143 114.342 130.143 118.009C126.476 118.009 122.81 118.009 119.143 118.009C119.143 114.342 119.143 110.676 119.143 107.009C142.323 96.8318 165.656 86.8318 189.143 77.009Z" fill="#7A72B2"/>
<path fill-rule="evenodd" clip-rule="evenodd" d="M79.1433 67.009C80.1433 67.009 81.1433 67.009 82.1433 67.009C82.3097 75.349 82.143 83.6823 81.6433 92.009C80.9725 92.7614 80.1392 93.0948 79.1433 93.009C79.1433 92.009 79.1433 91.009 79.1433 90.009C76.0185 89.0296 72.6852 88.6962 69.1433 89.009C69.1433 87.3423 69.1433 85.6757 69.1433 84.009C72.0287 84.3154 74.6954 83.9821 77.1433 83.009C77.1433 81.3423 77.1433 79.6757 77.1433 78.009C74.1433 78.009 71.1433 78.009 68.1433 78.009C68.1433 76.3423 68.1433 74.6757 68.1433 73.009C71.81 73.009 75.4766 73.009 79.1433 73.009C79.1433 71.009 79.1433 69.009 79.1433 67.009Z" fill="#6169AE"/>
<path fill-rule="evenodd" clip-rule="evenodd" d="M77.1433 83.009C74.6954 83.9821 72.0287 84.3154 69.1433 84.009C69.1433 85.6757 69.1433 87.3423 69.1433 89.009C72.6852 88.6962 76.0185 89.0296 79.1433 90.009C75.4766 90.009 71.81 90.009 68.1433 90.009C68.1433 87.6757 68.1433 85.3423 68.1433 83.009C71.1433 83.009 74.1433 83.009 77.1433 83.009Z" fill="#8F7EBE"/>
<path fill-rule="evenodd" clip-rule="evenodd" d="M62.1433 67.009C62.1433 76.3423 62.1433 85.6757 62.1433 95.009C66.1433 95.009 70.1433 95.009 74.1433 95.009C62.4298 100.527 50.4298 105.527 38.1433 110.009C37.8394 109.359 37.506 108.692 37.1433 108.009C34.5568 107.029 31.8902 106.696 29.1433 107.009C28.1702 109.457 27.8369 112.124 28.1433 115.009C18.7279 118.814 9.39461 122.814 0.143311 127.009C0.143311 122.342 0.143311 117.676 0.143311 113.009C20.0733 104.419 40.0733 95.9188 60.1433 87.509C61.1034 83.779 61.4368 79.9457 61.1433 76.009C60.8333 72.7959 61.1666 69.7959 62.1433 67.009Z" fill="#6369AE"/>
<path fill-rule="evenodd" clip-rule="evenodd" d="M189.143 87.009C189.143 91.009 189.143 95.009 189.143 99.009C179.398 102.479 169.732 106.146 160.143 110.009C153.714 105.736 147.547 106.069 141.643 111.009C141.146 113.319 140.98 115.652 141.143 118.009C140.129 119.183 138.796 119.849 137.143 120.009C137.143 116.342 137.143 112.676 137.143 109.009C154.476 101.676 171.81 94.3423 189.143 87.009Z" fill="#8074B3"/>
<path fill-rule="evenodd" clip-rule="evenodd" d="M88.1433 107.009C85.8482 112.932 83.0149 118.599 79.6433 124.009C79.1447 127.661 78.978 131.327 79.1433 135.009C77.4766 135.009 75.81 135.009 74.1433 135.009C72.232 125.824 68.5653 117.157 63.1433 109.009C63.7955 107.784 64.9622 107.117 66.6433 107.009C67.81 107.176 68.9766 107.342 70.1433 107.509C72.1191 110.962 73.9524 114.462 75.6433 118.009C77.3342 114.462 79.1675 110.962 81.1433 107.509C83.4531 107.012 85.7865 106.846 88.1433 107.009Z" fill="#EAA8DE"/>
<path fill-rule="evenodd" clip-rule="evenodd" d="M89.1433 107.009C91.1433 107.009 93.1433 107.009 95.1433 107.009C100.143 107.009 105.143 107.009 110.143 107.009C110.143 108.676 110.143 110.342 110.143 112.009C107.81 112.009 105.476 112.009 103.143 112.009C103.143 119.676 103.143 127.342 103.143 135.009C101.143 135.009 99.1433 135.009 97.1433 135.009C97.1433 127.342 97.1433 119.676 97.1433 112.009C94.4763 112.009 91.8103 112.009 89.1433 112.009C89.1433 110.342 89.1433 108.676 89.1433 107.009Z" fill="#EDAADF"/>
<path fill-rule="evenodd" clip-rule="evenodd" d="M110.143 107.009C111.047 107.718 111.38 108.718 111.143 110.009C111.143 111.009 111.143 112.009 111.143 113.009C108.81 113.009 106.476 113.009 104.143 113.009C104.468 120.528 104.135 127.861 103.143 135.009C103.143 127.342 103.143 119.676 103.143 112.009C105.476 112.009 107.81 112.009 110.143 112.009C110.143 110.342 110.143 108.676 110.143 107.009Z" fill="#A285C1"/>
<path opacity="0.995" fill-rule="evenodd" clip-rule="evenodd" d="M189.143 124.009C189.143 129.342 189.143 134.676 189.143 140.009C146.262 158.282 103.262 176.282 60.1433 194.009C54.8589 191.372 49.8589 188.372 45.1433 185.009C92.8443 164.164 140.844 143.83 189.143 124.009Z" fill="#927BB6"/>
<path opacity="0.999" fill-rule="evenodd" clip-rule="evenodd" d="M28.1433 115.009C28.3096 121.684 28.1429 128.351 27.6433 135.009C18.5244 139.153 9.35771 143.153 0.143311 147.009C0.143311 140.342 0.143311 133.676 0.143311 127.009C9.39461 122.814 18.7279 118.814 28.1433 115.009Z" fill="#6B6CAF"/>
<path opacity="0.992" fill-rule="evenodd" clip-rule="evenodd" d="M88.1433 107.009C88.4766 107.009 88.81 107.009 89.1433 107.009C89.1433 108.676 89.1433 110.342 89.1433 112.009C91.2503 112.977 93.5843 113.311 96.1433 113.009C95.8183 120.528 96.1513 127.861 97.1433 135.009C99.1433 135.009 101.143 135.009 103.143 135.009C104.135 127.861 104.468 120.528 104.143 113.009C106.476 113.009 108.81 113.009 111.143 113.009C111.143 112.009 111.143 111.009 111.143 110.009C111.476 110.009 111.81 110.009 112.143 110.009C112.474 118.369 112.141 126.702 111.143 135.009C81.5592 147.637 51.8925 159.971 22.1433 172.009C16.9342 169.79 12.2676 166.79 8.14331 163.009C30.4424 154.188 52.4424 144.854 74.1433 135.009C75.81 135.009 77.4766 135.009 79.1433 135.009C78.978 131.327 79.1447 127.661 79.6433 124.009C83.0149 118.599 85.8482 112.932 88.1433 107.009Z" fill="#7F74B3"/>
<path fill-rule="evenodd" clip-rule="evenodd" d="M89.1433 112.009C91.8103 112.009 94.4763 112.009 97.1433 112.009C97.1433 119.676 97.1433 127.342 97.1433 135.009C96.1513 127.861 95.8183 120.528 96.1433 113.009C93.5843 113.311 91.2503 112.977 89.1433 112.009Z" fill="#B08CC7"/>
<path opacity="0.989" fill-rule="evenodd" clip-rule="evenodd" d="M29.1433 107.009C29.1433 116.342 29.1433 125.676 29.1433 135.009C31.1433 135.009 33.1433 135.009 35.1433 135.009C34.1843 114.315 36.1843 114.315 41.1433 135.009C43.2473 135.308 45.2473 134.975 47.1433 134.009C49.0129 129.73 50.6796 125.397 52.1433 121.009C52.81 125.676 53.4766 130.342 54.1433 135.009C56.1433 135.009 58.1433 135.009 60.1433 135.009C60.1433 125.676 60.1433 116.342 60.1433 107.009C60.9333 108.118 61.4333 109.451 61.6433 111.009C62.3605 110.465 62.8605 109.798 63.1433 109.009C68.5653 117.157 72.232 125.824 74.1433 135.009C52.4424 144.854 30.4424 154.188 8.14331 163.009C3.37451 158.805 0.707911 153.472 0.143311 147.009C9.35771 143.153 18.5244 139.153 27.6433 135.009C28.1429 128.351 28.3096 121.684 28.1433 115.009C27.8369 112.124 28.1702 109.457 29.1433 107.009Z" fill="#7972B2"/>
<path fill-rule="evenodd" clip-rule="evenodd" d="M29.1433 107.009C31.8902 106.696 34.5568 107.029 37.1433 108.009C37.506 108.692 37.8394 109.359 38.1433 110.009C40.2059 115.359 42.3725 120.692 44.6433 126.009C47.0457 119.968 49.5457 113.968 52.1433 108.009C54.7298 107.029 57.3964 106.696 60.1433 107.009C60.1433 116.342 60.1433 125.676 60.1433 135.009C58.1433 135.009 56.1433 135.009 54.1433 135.009C54.3093 129.665 54.1427 124.332 53.6433 119.009C52.9261 119.553 52.4261 120.22 52.1433 121.009C50.6796 125.397 49.0129 129.73 47.1433 134.009C45.2473 134.975 43.2473 135.308 41.1433 135.009C36.1843 114.315 34.1843 114.315 35.1433 135.009C33.1433 135.009 31.1433 135.009 29.1433 135.009C29.1433 125.676 29.1433 116.342 29.1433 107.009Z" fill="#ECA9DF"/>
<path fill-rule="evenodd" clip-rule="evenodd" d="M54.1433 135.009C53.4766 130.342 52.81 125.676 52.1433 121.009C52.4261 120.22 52.9261 119.553 53.6433 119.009C54.1427 124.332 54.3093 129.665 54.1433 135.009Z" fill="#AC8BC6"/>
<path opacity="0.993" fill-rule="evenodd" clip-rule="evenodd" d="M189.143 99.009C189.143 107.342 189.143 115.676 189.143 124.009C140.844 143.83 92.8443 164.164 45.1433 185.009C37.2153 181.068 29.5486 176.735 22.1433 172.009C51.8925 159.971 81.5592 147.637 111.143 135.009C112.141 126.702 112.474 118.369 112.143 110.009C111.906 108.718 112.239 107.718 113.143 107.009C113.143 116.342 113.143 125.676 113.143 135.009C115.143 135.009 117.143 135.009 119.143 135.009C119.143 131.009 119.143 127.009 119.143 123.009C122.81 123.009 126.476 123.009 130.143 123.009C130.143 127.009 130.143 131.009 130.143 135.009C132.476 135.009 134.81 135.009 137.143 135.009C137.143 130.009 137.143 125.009 137.143 120.009C138.796 119.849 140.129 119.183 141.143 118.009C144.319 121.435 148.319 123.602 153.143 124.509C155.82 127.023 155.32 128.856 151.643 130.009C148.678 127.409 145.178 126.409 141.143 127.009C141.187 130.599 142.854 133.099 146.143 134.509C152.337 136.22 157.503 134.72 161.643 130.009C162.398 127.206 162.065 124.539 160.643 122.009C156.913 119.986 153.08 118.153 149.143 116.509C147.58 114.033 148.247 112.533 151.143 112.009C152.643 111.962 153.643 112.628 154.143 114.009C156.386 114.983 158.719 115.317 161.143 115.009C161.277 113.217 160.944 111.551 160.143 110.009C169.732 106.146 179.398 102.479 189.143 99.009Z" fill="#8B78B5"/>
<path fill-rule="evenodd" clip-rule="evenodd" d="M160.143 110.009C160.944 111.551 161.277 113.217 161.143 115.009C158.719 115.317 156.386 114.983 154.143 114.009C153.643 112.628 152.643 111.962 151.143 112.009C148.247 112.533 147.58 114.033 149.143 116.509C153.08 118.153 156.913 119.986 160.643 122.009C162.065 124.539 162.398 127.206 161.643 130.009C157.503 134.72 152.337 136.22 146.143 134.509C142.854 133.099 141.187 130.599 141.143 127.009C145.178 126.409 148.678 127.409 151.643 130.009C155.32 128.856 155.82 127.023 153.143 124.509C148.319 123.602 144.319 121.435 141.143 118.009C140.98 115.652 141.146 113.319 141.643 111.009C147.547 106.069 153.714 105.736 160.143 110.009Z" fill="#EAA8DE"/>
<path fill-rule="evenodd" clip-rule="evenodd" d="M113.143 107.009C115.143 107.009 117.143 107.009 119.143 107.009C119.143 110.676 119.143 114.342 119.143 118.009C122.81 118.009 126.476 118.009 130.143 118.009C130.143 114.342 130.143 110.676 130.143 107.009C133.031 106.499 135.364 107.165 137.143 109.009C137.143 112.676 137.143 116.342 137.143 120.009C137.143 125.009 137.143 130.009 137.143 135.009C134.81 135.009 132.476 135.009 130.143 135.009C130.143 131.009 130.143 127.009 130.143 123.009C126.476 123.009 122.81 123.009 119.143 123.009C119.143 127.009 119.143 131.009 119.143 135.009C117.143 135.009 115.143 135.009 113.143 135.009C113.143 125.676 113.143 116.342 113.143 107.009Z" fill="#ECA9DF"/>
<path opacity="0.99" fill-rule="evenodd" clip-rule="evenodd" d="M189.143 140.009C190.011 146.636 188.678 152.636 185.143 158.009C148.741 172.811 112.408 187.811 76.1433 203.009C70.4783 200.512 65.1449 197.512 60.1433 194.009C103.262 176.282 146.262 158.282 189.143 140.009Z" fill="#997DB7"/>
<path opacity="0.943" fill-rule="evenodd" clip-rule="evenodd" d="M185.143 158.009C182.637 162.681 178.97 166.181 174.143 168.509C152.143 181.176 130.143 193.842 108.143 206.509C101.329 208.897 94.3293 209.564 87.1433 208.509C82.8564 207.699 79.1897 205.866 76.1433 203.009C112.408 187.811 148.741 172.811 185.143 158.009Z" fill="#9E7FB8"/>
</svg>
