<svg width="167" height="185" viewBox="0 0 167 185" fill="none" xmlns="http://www.w3.org/2000/svg">
<path d="M90.082 54.1056C100.455 55.3731 100.455 55.3731 103.375 59.09C104.233 62.1791 103.85 64.2672 103 67.34C99.5145 71.934 93.4046 72.5659 88 73.34C84.25 72.5275 84.25 72.5275 81 71.34C78.3054 71.1629 75.704 71.2451 73 71.34C73.3171 72.0747 73.6342 72.8095 73.9609 73.5665C75.4368 78.9263 75.4685 84.1786 75.625 89.715C75.6637 90.8326 75.7023 91.9502 75.7422 93.1017C75.8361 95.8476 75.9217 98.5935 76 101.34C78.64 101.34 81.28 101.34 84 101.34C84 99.69 84 98.04 84 96.34C85.5773 95.6386 87.1621 94.9544 88.75 94.2775C89.6317 93.8946 90.5134 93.5117 91.4219 93.1173C94.2415 92.2671 95.2684 92.4572 98 93.34C101.509 93.34 104.565 92.9645 108 92.34C108 95.31 108 98.28 108 101.34C109.32 101.34 110.64 101.34 112 101.34C112 103.98 112 106.62 112 109.34C113.114 109.433 113.114 109.433 114.25 109.527C118.04 110.647 119.066 111.902 121 115.34C121.839 120.016 121.663 123.278 119.125 127.34C115.448 130.8 112.999 130.458 108.023 130.438C106.996 130.435 106.996 130.435 105.947 130.433C103.756 130.428 101.566 130.415 99.375 130.402C97.8906 130.397 96.4063 130.393 94.9219 130.389C91.2812 130.378 87.6406 130.36 84 130.34C84 129.35 84 128.36 84 127.34C83.0306 126.907 82.0612 126.474 81.0625 126.027C78 124.34 78 124.34 77 121.34C66.11 121.34 55.22 121.34 44 121.34C44 120.35 44 119.36 44 118.34C45.98 118.34 47.96 118.34 50 118.34C50.0909 116.673 50.0909 116.673 50.1836 114.973C51.4388 92.4623 51.4388 92.4623 53 89.34C54.98 89.34 56.96 89.34 59 89.34C59.0213 88.1063 59.0213 88.1063 59.043 86.8478C59.3454 79.7704 60.2592 74.6505 63.9414 68.5587C65.1711 65.9813 65.1937 64.1615 65 61.34C66.98 61.01 68.96 60.68 71 60.34C71.33 59.35 71.66 58.36 72 57.34C74.6024 55.6917 75.8625 55.34 79 55.34C79 56.66 79 57.98 79 59.34C79.66 58.515 80.32 57.69 81 56.84C84.4704 53.948 85.7762 53.8148 90.082 54.1056ZM87 57.34C86.6287 58.165 86.2575 58.99 85.875 59.84C84.9469 61.0775 84.9469 61.0775 84 62.34C80.8125 62.6525 80.8125 62.6525 78 62.34C77.34 63.66 76.68 64.98 76 66.34C74.35 66.34 72.7 66.34 71 66.34C71 66.67 71 67 71 67.34C73.5832 67.5082 76.1666 67.6746 78.75 67.84C79.4796 67.8876 80.2092 67.9353 80.9609 67.9845C87.5686 68.5347 87.5686 68.5347 94 67.34C95.6636 66.9918 97.33 66.6559 99 66.34C99.6796 63.9428 99.6796 63.9428 100 61.34C99.34 60.68 98.68 60.02 98 59.34C96.8863 59.34 95.7725 59.34 94.625 59.34C91.2263 59.34 89.7855 59.1227 87 57.34ZM66 74.34C65.67 75 65.34 75.66 65 76.34C66.32 76.34 67.64 76.34 69 76.34C69 75.68 69 75.02 69 74.34C68.01 74.34 67.02 74.34 66 74.34ZM63 80.34C63 81.33 63 82.32 63 83.34C65.64 83.34 68.28 83.34 71 83.34C71 82.35 71 81.36 71 80.34C68.36 80.34 65.72 80.34 63 80.34ZM63 86.34C62.67 90.96 62.34 95.58 62 100.34C61.01 100.34 60.02 100.34 59 100.34C59 98.03 59 95.72 59 93.34C58.01 93.34 57.02 93.34 56 93.34C54.7472 101.729 53.6399 109.837 54 118.34C54.99 118.34 55.98 118.34 57 118.34C58.5327 115.275 58.1028 112.072 58.0625 108.715C58.058 108.009 58.0535 107.302 58.0488 106.574C58.037 104.829 58.0191 103.085 58 101.34C59.32 101.34 60.64 101.34 62 101.34C61.67 106.95 61.34 112.56 61 118.34C63.64 118.34 66.28 118.34 69 118.34C69 112.73 69 107.12 69 101.34C69.99 101.34 70.98 101.34 72 101.34C72.0269 99.0275 72.0463 96.715 72.0625 94.4025C72.0741 93.1147 72.0857 91.8269 72.0977 90.5001C72.3653 87.477 72.3653 87.477 71 86.34C68.3294 86.1988 65.6757 86.2975 63 86.34ZM87 99.34C87 100 87 100.66 87 101.34C89.31 101.34 91.62 101.34 94 101.34C94 100.02 94 98.7 94 97.34C90.8945 97.34 89.6474 97.8793 87 99.34ZM98 99.34C98 100 98 100.66 98 101.34C100.31 101.34 102.62 101.34 105 101.34C105 99.69 105 98.04 105 96.34C102.628 96.34 100.071 98.2823 98 99.34ZM72 104.34C72 108.96 72 113.58 72 118.34C73.65 118.34 75.3 118.34 77 118.34C77.66 117.35 78.32 116.36 79 115.34C81.063 114.632 81.063 114.632 83.5703 114.172C84.4662 114.001 85.3621 113.83 86.2852 113.654C87.2223 113.489 88.1595 113.323 89.125 113.152C90.0699 112.975 91.0148 112.798 91.9883 112.615C94.3237 112.179 96.6606 111.754 99 111.34C98.67 109.03 98.34 106.72 98 104.34C97.01 104.34 96.02 104.34 95 104.34C95 106.32 95 108.3 95 110.34C94.01 110.01 93.02 109.68 92 109.34C92 107.69 92 106.04 92 104.34C91.01 104.34 90.02 104.34 89 104.34C89 106.32 89 108.3 89 110.34C88.01 110.01 87.02 109.68 86 109.34C86 107.69 86 106.04 86 104.34C85.01 104.34 84.02 104.34 83 104.34C83 106.32 83 108.3 83 110.34C82.01 110.01 81.02 109.68 80 109.34C80 107.69 80 106.04 80 104.34C77.36 104.34 74.72 104.34 72 104.34ZM101 104.34C101 106.32 101 108.3 101 110.34C104.465 109.845 104.465 109.845 108 109.34C108 107.69 108 106.04 108 104.34C105.69 104.34 103.38 104.34 101 104.34ZM92.875 115.34C91.9649 115.526 91.0548 115.711 90.1172 115.902C89.4185 116.047 88.7198 116.191 88 116.34C88.33 117 88.66 117.66 89 118.34C92.3 118.34 95.6 118.34 99 118.34C99.33 117.02 99.66 115.7 100 114.34C97.5232 114.34 95.3014 114.842 92.875 115.34ZM108 116.34C107.34 117 106.68 117.66 106 118.34C106.319 120.448 106.319 120.448 107 122.34C109.397 123.02 109.397 123.02 112 123.34C112.66 122.68 113.32 122.02 114 121.34C113.681 119.232 113.681 119.232 113 117.34C110.603 116.66 110.603 116.66 108 116.34ZM82 117.34C81.34 118.66 80.68 119.98 80 121.34C81.32 121.67 82.64 122 84 122.34C84.33 121.02 84.66 119.7 85 118.34C84.01 118.01 83.02 117.68 82 117.34ZM89 121.34C88.67 122 88.34 122.66 88 123.34C89.2375 123.691 90.475 124.041 91.75 124.402C92.4461 124.6 93.1422 124.797 93.8594 125C96.2196 125.375 97.7442 125.066 100 124.34C99.67 123.35 99.34 122.36 99 121.34C95.7 121.34 92.4 121.34 89 121.34Z" fill="#5A5A5A" fill-opacity="0.35"/>
<path d="M109 66.3399C114.382 65.9811 114.382 65.9811 116.938 67.4649C118.539 70.2918 117.796 72.2892 117 75.3399C116 76.3399 116 76.3399 112.402 76.4376C110.914 76.4309 109.426 76.4189 107.938 76.4024C106.8 76.3956 106.8 76.3956 105.639 76.3887C103.759 76.3769 101.88 76.359 100 76.3399C99.6178 74.6838 99.286 73.0153 99 71.3399C100 70.3399 100 70.3399 103.562 70.2774C104.697 70.298 105.831 70.3187 107 70.3399C107.66 69.0199 108.32 67.6999 109 66.3399ZM111 69.3399C110.67 70.6599 110.34 71.9799 110 73.3399C111.32 73.0099 112.64 72.6799 114 72.3399C113.67 71.3499 113.34 70.3599 113 69.3399C112.34 69.3399 111.68 69.3399 111 69.3399Z" fill="#5A5A5A" fill-opacity="0.35"/>
<path d="M56 122.34C61.94 122.34 67.88 122.34 74 122.34C74.33 123.66 74.66 124.98 75 126.34C68.4 126.34 61.8 126.34 55 126.34C55.33 125.02 55.66 123.7 56 122.34Z" fill="#5A5A5A" fill-opacity="0.35"/>
<path d="M105 85.3398C105.99 85.6698 106.98 85.9998 108 86.3398C107.67 87.6598 107.34 88.9798 107 90.3398C105.35 90.6698 103.7 90.9998 102 91.3398C102.573 88.4726 102.861 87.4784 105 85.3398Z" fill="#5A5A5A" fill-opacity="0.35"/>
<path d="M95 81.3398C95.99 81.6698 96.98 81.9998 98 82.3398C98 84.3198 98 86.2998 98 88.3398C96.68 88.3398 95.36 88.3398 94 88.3398C93.9575 86.3403 93.9592 84.3394 94 82.3398C94.33 82.0098 94.66 81.6798 95 81.3398Z" fill="#5A5A5A" fill-opacity="0.35"/>
<path d="M85 85.3398C87.5 86.6523 87.5 86.6523 90 88.3398C90 89.3298 90 90.3198 90 91.3398C88.35 91.0098 86.7 90.6798 85 90.3398C84.4375 88.4023 84.4375 88.4023 84 86.3398C84.33 86.0098 84.66 85.6798 85 85.3398Z" fill="#5A5A5A" fill-opacity="0.35"/>
<path d="M76 127.34C77.65 127.34 79.3 127.34 81 127.34C81.33 128.33 81.66 129.32 82 130.34C79.69 130.34 77.38 130.34 75 130.34C75.33 129.35 75.66 128.36 76 127.34Z" fill="#5A5A5A" fill-opacity="0.35"/>
<path d="M93.9326 2.82483C97.6457 4.60678 101.168 6.63278 104.702 8.73889C106.468 9.75909 108.235 10.7772 110.003 11.7936C114.064 14.1384 118.11 16.5071 122.147 18.8912C126.685 21.5658 131.242 24.2004 135.819 26.8053C137.001 27.4797 138.183 28.1542 139.365 28.8287C141.624 30.1157 143.885 31.3985 146.148 32.6764C155.398 37.9621 162.232 42.1715 165.702 52.7389C166.429 58.7847 166.408 64.7818 166.366 70.8639C166.37 72.6193 166.374 74.3746 166.381 76.13C166.388 79.7948 166.377 83.459 166.354 87.1237C166.325 91.7975 166.342 96.4698 166.372 101.144C166.39 104.764 166.384 108.384 166.371 112.005C166.368 113.727 166.372 115.449 166.384 117.172C166.479 135.2 166.479 135.2 160.702 142.739C154.49 148.824 146.738 152.712 139.14 156.801C136.741 158.108 134.346 159.421 131.952 160.735C131.349 161.065 130.745 161.396 130.124 161.736C122.91 165.7 115.822 169.88 108.745 174.083C88.9503 185.769 88.9503 185.769 75.7021 183.739C70.6628 182.045 66.2482 179.448 61.7021 176.739C59.9363 175.719 58.1693 174.701 56.4013 173.684C52.3404 171.339 48.2947 168.971 44.2568 166.587C39.7196 163.912 35.1622 161.277 30.5849 158.672C29.4029 157.998 28.221 157.324 27.039 156.649C24.7805 155.362 22.5195 154.079 20.2558 152.801C11.0058 147.516 4.17187 143.306 0.702096 132.739C-0.0246381 126.693 -0.00337666 120.696 0.0380337 114.614C0.0346586 112.859 0.0298002 111.103 0.0235378 109.348C0.0161993 105.683 0.0267737 102.019 0.0502407 98.3541C0.0787271 93.6803 0.0623087 89.008 0.0323803 84.3342C0.0142251 80.7136 0.020097 77.0934 0.0330135 73.4728C0.0363249 71.7506 0.0323489 70.0284 0.0206234 68.3062C-0.0752163 50.2779 -0.0752206 50.2779 5.7021 42.7389C11.9143 36.6541 19.6667 32.7658 27.2646 28.6764C29.6629 27.3698 32.0578 26.0568 34.4521 24.7428C35.0555 24.4124 35.6588 24.082 36.2805 23.7416C43.4947 19.7776 50.5821 15.5975 57.6594 11.3949C80.0697 -1.83524 80.0697 -1.83524 93.9326 2.82483ZM61.7021 11.7389C60.8289 12.2376 59.9557 12.7363 59.0561 13.2501C54.0764 16.1099 49.1229 19.011 44.1826 21.9381C39.6978 24.5882 35.1796 27.1638 30.6279 29.6959C29.4491 30.3569 28.2705 31.0183 27.0922 31.6801C24.8492 32.9364 22.5999 34.1814 20.3432 35.413C11.7786 40.2419 5.43213 45.004 2.7021 54.7389C2.51359 57.2386 2.42616 59.747 2.41157 62.2538C2.40485 62.9815 2.39813 63.7092 2.39121 64.4589C2.37231 66.8505 2.36831 69.2418 2.36616 71.6334C2.35973 73.3072 2.353 74.981 2.34599 76.6548C2.33403 80.1592 2.3303 83.6635 2.33149 87.1678C2.33169 91.6399 2.3044 96.1112 2.26994 100.583C2.24761 104.04 2.24365 107.496 2.24471 110.953C2.24236 112.6 2.23359 114.248 2.21805 115.896C2.13504 125.604 2.14662 133.95 8.40327 141.901C14.2236 146.706 20.5582 150.252 27.2021 153.801C29.6124 155.109 32.0186 156.424 34.4248 157.739C35.0316 158.07 35.6385 158.4 36.2638 158.741C43.4334 162.659 50.4639 166.815 57.4833 170.995C72.0916 180.517 72.0916 180.517 88.7021 181.739C94.3231 179.571 99.4799 176.727 104.702 173.739C105.575 173.24 106.448 172.741 107.348 172.228C112.328 169.368 117.281 166.467 122.222 163.54C126.706 160.89 131.225 158.314 135.776 155.782C136.955 155.121 138.134 154.46 139.312 153.798C141.555 152.541 143.804 151.296 146.061 150.065C154.626 145.236 160.972 140.474 163.702 130.739C163.891 128.239 163.978 125.731 163.993 123.224C163.999 122.496 164.006 121.769 164.013 121.019C164.032 118.627 164.036 116.236 164.038 113.844C164.044 112.171 164.051 110.497 164.058 108.823C164.07 105.319 164.074 101.814 164.073 98.3099C164.073 93.8379 164.1 89.3666 164.134 84.8947C164.157 81.4381 164.161 77.9817 164.159 74.525C164.162 72.8773 164.171 71.2296 164.186 69.582C164.269 59.8741 164.258 51.528 158.001 43.577C152.181 38.772 145.846 35.2257 139.202 31.6764C136.792 30.369 134.386 29.0541 131.979 27.7389C131.069 27.243 131.069 27.243 130.14 26.737C122.971 22.8184 115.94 18.6633 108.921 14.4828C90.1288 3.37764 80.8752 0.766769 61.7021 11.7389Z" fill="#5A5A5A" fill-opacity="0.35"/>
</svg>
