<svg width="167" height="186" viewBox="0 0 167 186" fill="none" xmlns="http://www.w3.org/2000/svg">
<path d="M94.2304 3.08582C97.9436 4.86777 101.466 6.89377 105 8.99988C106.766 10.0201 108.533 11.0381 110.301 12.0546C114.362 14.3994 118.407 16.7681 122.445 19.1522C126.982 21.8268 131.54 24.4613 136.117 27.0663C137.299 27.7407 138.481 28.4152 139.663 29.0897C141.922 30.3767 144.183 31.6594 146.446 32.9374C155.696 38.2231 162.53 42.4325 166 52.9999C166.727 59.0457 166.705 65.0428 166.664 71.1249C166.667 72.8803 166.672 74.6356 166.679 76.391C166.686 80.0558 166.675 83.7199 166.652 87.3846C166.623 92.0584 166.64 96.7308 166.67 101.405C166.688 105.025 166.682 108.645 166.669 112.266C166.666 113.988 166.67 115.71 166.681 117.433C166.777 135.461 166.777 135.461 161 143C154.788 149.085 147.035 152.973 139.437 157.062C137.039 158.369 134.644 159.682 132.25 160.996C131.647 161.326 131.043 161.657 130.422 161.997C123.207 165.961 116.12 170.141 109.043 174.344C89.2482 186.03 89.2482 186.03 75.9999 184C70.9606 182.306 66.5461 179.709 61.9999 177C60.2342 175.98 58.4671 174.962 56.6992 173.945C52.6383 171.6 48.5925 169.232 44.5546 166.848C40.0174 164.173 35.4601 161.538 30.8828 158.933C29.7008 158.259 28.5188 157.585 27.3369 156.91C25.0783 155.623 22.8173 154.34 20.5537 153.062C11.3037 147.777 4.46973 143.567 0.999948 133C0.273213 126.954 0.294475 120.957 0.335885 114.875C0.33251 113.12 0.327652 111.364 0.321389 109.609C0.314051 105.944 0.324625 102.28 0.348092 98.6151C0.376579 93.9413 0.36016 89.2689 0.330232 84.5952C0.312077 80.9746 0.317949 77.3544 0.330865 73.7338C0.334176 72.0116 0.3302 70.2894 0.318475 68.5672C0.222635 50.5388 0.222631 50.5388 5.99995 42.9999C12.2121 36.9151 19.9645 33.0267 27.5624 28.9374C29.9608 27.6308 32.3556 26.3178 34.7499 25.0038C35.3533 24.6734 35.9567 24.343 36.5783 24.0026C43.7925 20.0386 50.88 15.8585 57.9572 11.6559C80.3675 -1.57426 80.3675 -1.57426 94.2304 3.08582ZM61.9999 11.9999C61.1268 12.4986 60.2536 12.9973 59.354 13.5111C54.3743 16.3709 49.4208 19.272 44.4804 22.1991C39.9956 24.8492 35.4774 27.4248 30.9257 29.9569C29.7469 30.6179 28.5684 31.2792 27.3901 31.941C25.1471 33.1974 22.8977 34.4423 20.6411 35.674C12.0765 40.5029 5.72998 45.265 2.99995 54.9999C2.81144 57.4996 2.72401 60.008 2.70942 62.5148C2.7027 63.2425 2.69599 63.9702 2.68907 64.7199C2.67016 67.1115 2.66616 69.5028 2.66401 71.8944C2.65758 73.5682 2.65085 75.242 2.64384 76.9158C2.63188 80.4202 2.62816 83.9244 2.62934 87.4288C2.62955 91.9008 2.60225 96.3722 2.5678 100.844C2.54547 104.301 2.5415 107.757 2.54256 111.214C2.54021 112.861 2.53145 114.509 2.5159 116.157C2.43289 125.865 2.44447 134.211 8.70112 142.162C14.5215 146.967 20.8561 150.513 27.4999 154.062C29.9103 155.37 32.3165 156.685 34.7226 158C35.3295 158.33 35.9363 158.661 36.5616 159.002C43.7312 162.92 50.7617 167.076 57.7812 171.256C72.3894 180.778 72.3894 180.778 88.9999 182C94.621 179.831 99.7778 176.988 105 174C105.873 173.501 106.746 173.002 107.646 172.489C112.626 169.629 117.579 166.728 122.519 163.801C127.004 161.151 131.522 158.575 136.074 156.043C137.253 155.382 138.432 154.721 139.61 154.059C141.853 152.802 144.102 151.557 146.359 150.326C154.923 145.497 161.27 140.735 164 131C164.188 128.5 164.276 125.992 164.29 123.485C164.297 122.757 164.304 122.03 164.311 121.28C164.33 118.888 164.334 116.497 164.336 114.105C164.342 112.432 164.349 110.758 164.356 109.084C164.368 105.58 164.372 102.075 164.371 98.5709C164.37 94.0989 164.398 89.6275 164.432 85.1557C164.454 81.6991 164.458 78.2426 164.457 74.786C164.46 73.1383 164.468 71.4906 164.484 69.8429C164.567 60.1351 164.555 51.789 158.299 43.838C152.478 39.033 146.144 35.4866 139.5 31.9374C137.09 30.63 134.683 29.3151 132.277 27.9999C131.367 27.504 131.367 27.504 130.438 26.998C123.269 23.0793 116.238 18.9242 109.219 14.7438C90.4266 3.63862 81.1731 1.02776 61.9999 11.9999Z" fill="#5A5A5A" fill-opacity="0.35"/>
<path d="M82.9374 73.875C84.6883 73.8035 84.6883 73.8035 86.4745 73.7305C94.7033 73.7586 94.7033 73.7586 98.1879 77.0947C100.579 80.7728 101.923 83.7705 102.199 88.1641C100.572 92.0123 98.368 95.0882 95.8124 98.375C95.3157 99.0319 94.8191 99.6887 94.3073 100.365C93.3254 101.662 92.3389 102.956 91.3476 104.246C89.6468 106.46 87.9792 108.698 86.3124 110.938C85.5493 111.948 84.7862 112.959 83.9999 114C78.0591 111.676 75.1964 105.784 71.6874 100.75C70.934 99.7123 70.1805 98.6746 69.4042 97.6055C68.6972 96.5961 67.9901 95.5868 67.2617 94.5469C66.6116 93.6275 65.9615 92.708 65.2917 91.7607C63.3628 87.6383 64.3966 84.8809 65.7365 80.7036C69.5211 73.2326 75.2313 73.7308 82.9374 73.875ZM73.9999 78C74.6599 79.65 75.3199 81.3 75.9999 83C76.6599 83 77.3199 83 77.9999 83C78.6599 81.35 79.3199 79.7 79.9999 78C78.0199 78 76.0399 78 73.9999 78ZM85.9999 78C86.6599 79.65 87.3199 81.3 87.9999 83C88.6599 83 89.3199 83 89.9999 83C90.6599 81.35 91.3199 79.7 91.9999 78C90.0199 78 88.0399 78 85.9999 78ZM69.9999 81C69.6699 82.32 69.3399 83.64 68.9999 85C70.6499 85 72.2999 85 73.9999 85C73.3399 83.68 72.6799 82.36 71.9999 81C71.3399 81 70.6799 81 69.9999 81ZM81.9999 81C81.6699 82.32 81.3399 83.64 80.9999 85C82.3199 85 83.6399 85 84.9999 85C84.6699 83.68 84.3399 82.36 83.9999 81C83.3399 81 82.6799 81 81.9999 81ZM93.9999 81C93.3399 82.32 92.6799 83.64 91.9999 85C93.6499 85 95.2999 85 96.9999 85C96.6699 83.68 96.3399 82.36 95.9999 81C95.3399 81 94.6799 81 93.9999 81ZM68.9999 89C71.7168 93.9305 74.6665 98.4628 77.9999 103C79.4934 100.013 78.4064 98.0484 77.5624 94.875C77.275 93.7793 76.9875 92.6836 76.6913 91.5547C76.4632 90.7116 76.235 89.8686 75.9999 89C73.6899 89 71.3799 89 68.9999 89ZM78.9999 89C79.9899 93.62 80.9799 98.24 81.9999 103C82.6599 103 83.3199 103 83.9999 103C84.9899 98.38 85.9799 93.76 86.9999 89C84.3599 89 81.7199 89 78.9999 89ZM89.9999 89C89.0099 93.62 88.0199 98.24 86.9999 103C89.9589 100.041 92.0179 97.7226 94.2499 94.3125C94.7707 93.5249 95.2915 92.7373 95.8281 91.9258C97.0866 90.2333 97.0866 90.2333 96.9999 89C94.6899 89 92.3799 89 89.9999 89Z" fill="#5A5A5A" fill-opacity="0.35"/>
<path d="M81 118C82.32 118 83.64 118 85 118C85 121.96 85 125.92 85 130C83.68 130 82.36 130 81 130C81 126.04 81 122.08 81 118Z" fill="#5A5A5A" fill-opacity="0.35"/>
<path d="M108 91C111.96 91 115.92 91 120 91C120 92.32 120 93.64 120 95C116.04 95 112.08 95 108 95C108 93.68 108 92.36 108 91Z" fill="#5A5A5A" fill-opacity="0.35"/>
<path d="M46 91C49.96 91 53.92 91 58 91C58 92.32 58 93.64 58 95C54.04 95 50.08 95 46 95C46 93.68 46 92.36 46 91Z" fill="#5A5A5A" fill-opacity="0.35"/>
<path d="M81 56C82.32 56 83.64 56 85 56C85 59.96 85 63.92 85 68C83.68 68 82.36 68 81 68C81 64.04 81 60.08 81 56Z" fill="#5A5A5A" fill-opacity="0.35"/>
<path d="M95 114C98.2441 115.043 99.6019 116.612 101.312 119.438C103 123 103 123 102 126C98.3366 124.779 97.6496 123.133 95.7695 119.887C95 118 95 118 95 114Z" fill="#5A5A5A" fill-opacity="0.35"/>
<path d="M104 105C108.999 105.476 111.978 107.032 116 110C115.67 110.99 115.34 111.98 115 113C110.892 111.55 107.497 109.602 104 107C104 106.34 104 105.68 104 105Z" fill="#5A5A5A" fill-opacity="0.35"/>
<path d="M62 105C60.9572 108.244 59.3876 109.602 56.5625 111.312C53 113 53 113 50 112C51.2211 108.337 52.8672 107.65 56.1133 105.77C58 105 58 105 62 105Z" fill="#5A5A5A" fill-opacity="0.35"/>
<path d="M116 74.0001C114.779 77.6634 113.133 78.3505 109.887 80.2305C108 81.0001 108 81.0001 104 81.0001C105.043 77.756 106.612 76.3981 109.438 74.6876C113 73.0001 113 73.0001 116 74.0001Z" fill="#5A5A5A" fill-opacity="0.35"/>
<path d="M63.9999 60C67.6633 61.2211 68.3504 62.8672 70.2304 66.1133C70.9999 68 70.9999 68 70.9999 72C67.7558 70.9572 66.398 69.3876 64.6874 66.5625C62.9999 63 62.9999 63 63.9999 60Z" fill="#5A5A5A" fill-opacity="0.35"/>
<path d="M69 114C69.66 114 70.32 114 71 114C70.5258 118.979 69.0901 122.067 66 126C65.34 126 64.68 126 64 126C64.4742 121.021 65.9099 117.933 69 114Z" fill="#5A5A5A" fill-opacity="0.35"/>
<path d="M50 74C54.9787 74.4742 58.0672 75.9099 62 79C62 79.66 62 80.32 62 81C57.0213 80.5258 53.9328 79.0901 50 76C50 75.34 50 74.68 50 74Z" fill="#5A5A5A" fill-opacity="0.35"/>
<path d="M100 60C100.66 60 101.32 60 102 60C101.526 64.9787 100.09 68.0672 97 72C96.34 72 95.68 72 95 72C95.4742 67.0213 96.9099 63.9328 100 60Z" fill="#5A5A5A" fill-opacity="0.35"/>
</svg>
