<svg width="167" height="186" viewBox="0 0 167 186" fill="none" xmlns="http://www.w3.org/2000/svg">
<path d="M94.2304 3.08582C97.9436 4.86777 101.466 6.89377 105 8.99988C106.766 10.0201 108.533 11.0381 110.301 12.0546C114.362 14.3994 118.407 16.7681 122.445 19.1522C126.982 21.8268 131.54 24.4613 136.117 27.0663C137.299 27.7407 138.481 28.4152 139.663 29.0897C141.922 30.3767 144.183 31.6594 146.446 32.9374C155.696 38.2231 162.53 42.4325 166 52.9999C166.727 59.0457 166.705 65.0428 166.664 71.1249C166.667 72.8803 166.672 74.6356 166.679 76.391C166.686 80.0558 166.675 83.7199 166.652 87.3846C166.623 92.0584 166.64 96.7308 166.67 101.405C166.688 105.025 166.682 108.645 166.669 112.266C166.666 113.988 166.67 115.71 166.681 117.433C166.777 135.461 166.777 135.461 161 143C154.788 149.085 147.035 152.973 139.437 157.062C137.039 158.369 134.644 159.682 132.25 160.996C131.647 161.326 131.043 161.657 130.422 161.997C123.207 165.961 116.12 170.141 109.043 174.344C89.2482 186.03 89.2482 186.03 75.9999 184C70.9606 182.306 66.5461 179.709 61.9999 177C60.2342 175.98 58.4671 174.962 56.6992 173.945C52.6383 171.6 48.5925 169.232 44.5546 166.848C40.0174 164.173 35.4601 161.538 30.8828 158.933C29.7008 158.259 28.5188 157.585 27.3369 156.91C25.0783 155.623 22.8173 154.34 20.5537 153.062C11.3037 147.777 4.46973 143.567 0.999948 133C0.273213 126.954 0.294475 120.957 0.335885 114.875C0.33251 113.12 0.327652 111.364 0.321389 109.609C0.314051 105.944 0.324625 102.28 0.348092 98.6151C0.376579 93.9413 0.36016 89.2689 0.330232 84.5952C0.312077 80.9746 0.317949 77.3544 0.330865 73.7338C0.334176 72.0116 0.3302 70.2894 0.318475 68.5672C0.222635 50.5388 0.222631 50.5388 5.99995 42.9999C12.2121 36.9151 19.9645 33.0267 27.5624 28.9374C29.9608 27.6308 32.3556 26.3178 34.7499 25.0038C35.3533 24.6734 35.9567 24.343 36.5783 24.0026C43.7925 20.0386 50.88 15.8585 57.9572 11.6559C80.3675 -1.57426 80.3675 -1.57426 94.2304 3.08582ZM61.9999 11.9999C61.1268 12.4986 60.2536 12.9973 59.354 13.5111C54.3743 16.3709 49.4208 19.272 44.4804 22.1991C39.9956 24.8492 35.4774 27.4248 30.9257 29.9569C29.7469 30.6179 28.5684 31.2792 27.3901 31.941C25.1471 33.1974 22.8977 34.4423 20.6411 35.674C12.0765 40.5029 5.72998 45.265 2.99995 54.9999C2.81144 57.4996 2.72401 60.008 2.70942 62.5148C2.7027 63.2425 2.69599 63.9702 2.68907 64.7199C2.67016 67.1115 2.66616 69.5028 2.66401 71.8944C2.65758 73.5682 2.65085 75.242 2.64384 76.9158C2.63188 80.4202 2.62816 83.9244 2.62934 87.4288C2.62955 91.9008 2.60225 96.3722 2.5678 100.844C2.54547 104.301 2.5415 107.757 2.54256 111.214C2.54021 112.861 2.53145 114.509 2.5159 116.157C2.43289 125.865 2.44447 134.211 8.70112 142.162C14.5215 146.967 20.8561 150.513 27.4999 154.062C29.9103 155.37 32.3165 156.685 34.7226 158C35.3295 158.33 35.9363 158.661 36.5616 159.002C43.7312 162.92 50.7617 167.076 57.7812 171.256C72.3894 180.778 72.3894 180.778 88.9999 182C94.621 179.831 99.7778 176.988 105 174C105.873 173.501 106.746 173.002 107.646 172.489C112.626 169.629 117.579 166.728 122.519 163.801C127.004 161.151 131.522 158.575 136.074 156.043C137.253 155.382 138.432 154.721 139.61 154.059C141.853 152.802 144.102 151.557 146.359 150.326C154.923 145.497 161.27 140.735 164 131C164.188 128.5 164.276 125.992 164.29 123.485C164.297 122.757 164.304 122.03 164.311 121.28C164.33 118.888 164.334 116.497 164.336 114.105C164.342 112.432 164.349 110.758 164.356 109.084C164.368 105.58 164.372 102.075 164.371 98.5709C164.37 94.0989 164.398 89.6275 164.432 85.1557C164.454 81.6991 164.458 78.2426 164.457 74.786C164.46 73.1383 164.468 71.4906 164.484 69.8429C164.567 60.1351 164.555 51.789 158.299 43.838C152.478 39.033 146.144 35.4866 139.5 31.9374C137.09 30.63 134.683 29.3151 132.277 27.9999C131.367 27.504 131.367 27.504 130.438 26.998C123.269 23.0793 116.238 18.9242 109.219 14.7438C90.4266 3.63862 81.1731 1.02776 61.9999 11.9999Z" fill="#5A5A5A" fill-opacity="0.35"/>
<path d="M68 60.0001C71.4302 61.6851 73.3027 62.8282 75.2512 66.1026C76.9118 68.2838 76.9118 68.2838 79.9109 68.546C81.0682 68.5669 82.2256 68.5879 83.418 68.6095C84.6716 68.6417 85.9252 68.6739 87.2168 68.7071C89.1823 68.7284 89.1823 68.7284 91.1875 68.7501C92.5228 68.7782 93.8581 68.8082 95.1934 68.8399C98.4619 68.9107 101.731 68.9577 105 69.0001C105 75.9301 105 82.8601 105 90.0001C105.99 90.0001 106.98 90.0001 108 90.0001C108.66 90.9901 109.32 91.9801 110 93.0001C110.784 93.0001 111.568 93.0001 112.375 93.0001C115 93.0001 115 93.0001 117.313 94.0001C119.982 97.1633 119.265 99.9533 119 104C119.99 104 120.98 104 122 104C122 106.64 122 109.28 122 112C120.515 112.495 120.515 112.495 119 113C119.062 114.093 119.124 115.186 119.188 116.313C119 120 119 120 117.938 121.875C115.112 123.515 112.208 123.584 109 124C108.67 124.66 108.34 125.32 108 126C105.36 126 102.72 126 100 126C100 125.01 100 124.02 100 123C86.8 123 73.6 123 60 123C60 117.72 60 112.44 60 107C58.35 106.34 56.7 105.68 55 105C54.67 104.319 54.34 103.639 54 102.938C53.505 101.979 53.505 101.979 53 101C50.4448 100.188 50.4448 100.188 48 100C47.0878 96.9213 46.671 94.2081 47 91.0001C48.5 89.1876 48.5 89.1876 50 88.0001C49.34 87.2576 48.68 86.5151 48 85.7501C44.8234 80.9852 45.262 75.4828 46 70.0001C50.4702 60.3721 58.1539 58.6495 68 60.0001ZM52 66.0001C49.303 69.1608 48 72.1678 48 76.3438C48.6563 80.4459 49.7347 83.2202 52.875 86.0001C55.4212 87.6296 57.044 88.659 60 89.0001C60 87.0201 60 85.0401 60 83.0001C58.02 82.0101 56.04 81.0201 54 80.0001C54 78.6801 54 77.3601 54 76.0001C55.65 76.0001 57.3 76.0001 59 76.0001C59.66 77.6501 60.32 79.3001 61 81.0001C61.66 81.0001 62.32 81.0001 63 81.0001C63.33 79.3501 63.66 77.7001 64 76.0001C65.98 75.6701 67.96 75.3401 70 75.0001C70 76.9801 70 78.9601 70 81.0001C68.546 81.4641 68.546 81.4641 67.0625 81.9376C64.1594 82.6953 64.1594 82.6953 63 84.0001C62.9594 85.6663 62.9573 87.334 63 89.0001C67.4094 88.4962 69.7885 87.038 73 84.0001C75.5198 79.7738 75.9309 75.8083 75 71.0001C72.8453 67.1807 70.2055 64.6602 66.375 62.5626C60.6598 61.209 56.5996 62.6677 52 66.0001ZM78 72.0001C77.67 74.9701 77.34 77.9401 77 81.0001C75 84.4376 75 84.4376 73 87.0001C72.67 87.6601 72.34 88.3201 72 89.0001C72.99 89.3301 73.98 89.6601 75 90.0001C75 93.3001 75 96.6001 75 100C74.2575 100.248 73.515 100.495 72.75 100.75C69.7821 102.099 68.2447 103.681 66 106C64.515 106.495 64.515 106.495 63 107C63 111.62 63 116.24 63 121C71.91 121 80.82 121 90 121C90 118.69 90 116.38 90 114C89.01 113.34 88.02 112.68 87 112C86.2995 109.337 86.2226 106.76 86 104C86.99 104 87.98 104 89 104C89.1031 102.907 89.2063 101.814 89.3125 100.688C90 97.0001 90 97.0001 91.1875 95.0626C93.8064 93.5274 96.0292 93.802 99 94.0001C99.33 92.6801 99.66 91.3601 100 90.0001C100.99 90.0001 101.98 90.0001 103 90.0001C103 84.0601 103 78.1201 103 72.0001C94.75 72.0001 86.5 72.0001 78 72.0001ZM50 92.0001C50.33 92.6601 50.66 93.3201 51 94.0001C58.26 94.0001 65.52 94.0001 73 94.0001C73 93.3401 73 92.6801 73 92.0001C65.41 92.0001 57.82 92.0001 50 92.0001ZM102 93.0001C102 93.9901 102 94.9801 102 96.0001C101.043 96.0736 101.043 96.0736 100.066 96.1485C99.2401 96.2233 98.4138 96.2981 97.5625 96.3751C96.7388 96.4447 95.9151 96.5143 95.0664 96.586C94.3845 96.7227 93.7026 96.8593 93 97.0001C91.5217 99.9567 91.9397 102.742 92 106C90.68 106.33 89.36 106.66 88 107C88 107.99 88 108.98 88 110C88.99 110.33 89.98 110.66 91 111C91.9492 113.066 91.9492 113.066 92.6875 115.563C92.9389 116.389 93.1903 117.215 93.4492 118.066C93.631 118.705 93.8128 119.343 94 120C95.1138 120.103 96.2275 120.206 97.375 120.313C99.1694 120.653 99.1694 120.653 101 121C101.66 121.99 102.32 122.98 103 124C103.99 124 104.98 124 106 124C106.33 123.01 106.66 122.02 107 121C110.96 120.505 110.96 120.505 115 120C116.001 116.996 116.514 114.123 117 111C117.99 110.67 118.98 110.34 120 110C120 109.01 120 108.02 120 107C119.34 106.381 118.68 105.763 118 105.125C116 103 116 103 115.75 100.25C115.833 99.5076 115.915 98.7651 116 98.0001C111.084 96.4806 111.084 96.4806 106 96.0001C106 95.0101 106 94.0201 106 93.0001C104.68 93.0001 103.36 93.0001 102 93.0001ZM51 96.0001C50.67 96.6601 50.34 97.3201 50 98.0001C57.59 98.0001 65.18 98.0001 73 98.0001C73 97.3401 73 96.6801 73 96.0001C65.74 96.0001 58.48 96.0001 51 96.0001ZM56 101C58.6618 104.278 58.6618 104.278 62.0625 104.375C63.0319 104.251 64.0013 104.128 65 104C65.66 103.01 66.32 102.02 67 101C63.37 101 59.74 101 56 101Z" fill="#5A5A5A" fill-opacity="0.35"/>
<path d="M108 97.9999C110.807 99.3403 111.861 100.547 114 103C115.264 107.088 115.274 109.208 113.875 113.25C111.785 116.316 110.412 117.572 107 119C102.926 119.607 101.31 119.175 97.6875 117.125C94.9956 114.996 94.1593 114.329 93.7617 111.012C93.6287 106.846 93.6117 104.621 95.875 101C99.5338 97.5564 103.124 97.2129 108 97.9999ZM97 105C95.9236 106.888 95.9236 106.888 96 109C97.6408 112.446 98.7851 113.857 102 116C105.058 115.809 107.231 115.504 109.812 113.812C111.587 111.104 112 109.243 112 106C109.558 102.596 108.09 101.2 103.937 100.437C100.341 101.126 99.1793 102.094 97 105Z" fill="#5A5A5A" fill-opacity="0.35"/>
</svg>
